<svg id="Lager_1" data-name="Lager 1" xmlns="http://www.w3.org/2000/svg" width="289.0946" height="156.1011" viewBox="0 0 289.0946 156.1011"><defs><style>.cls-1{fill:#1d3176;}.cls-2{fill:#9a5a02;}</style></defs><path class="cls-1" d="M.0567,125.0681a2.1771,2.1771,0,0,0,2.2856-2.1816V105.3631A2.7463,2.7463,0,0,0,.1605,102.42v-.7619c1.316,0,2.5973.1386,3.9134.1386s2.6319-.1386,3.9479-.1386v.7619c-1.42.381-1.87,1.212-1.87,3.0477,0,1.0388-.1038,3.2552-.1038,6.372v11.9822a18.463,18.463,0,0,0,3.6707.2078c5.9565,0,7.03-1.0734,7.896-3.29l1.2467.6232-1.4891,4.883a9.3136,9.3136,0,0,0-3.3246-.5541H2.6886c-.8658,0-1.7661.1386-2.6319.1386Z" transform="translate(0 0.1011)"/><path class="cls-1" d="M21.9978,106.466c.9972,0,1.9946.1107,3.02.1107.9972,0,2.0223-.1107,3.02-.1107v.6093c-1.2466.1664-1.5515.9975-1.5515,2.77,0,2.6318-.0277,5.2634-.0277,7.8952,0,3.7122,1.7177,6.3439,5.8453,6.3439,2.2439,0,5.0974-1.302,5.0974-4.4323v-3.2691c0-3.2688-.2494-6.5377-.2494-7.9229a1.54,1.54,0,0,0-1.4127-1.3852l0-.6093c.9973,0,1.9947.1107,2.992.1107s2.0222-.1107,3.02-.1107v.6093c-.9142.0278-1.3021,1.1082-1.3021,2.05,0,1.0527-.0831,3.9339-.0831,7.59v6.0393c0,1.5512.3047,2.3546,1.5236,2.4378v.61c-.7757,0-1.579-.1109-2.3546-.1109s-1.5515.1109-2.3271.1109c.0554-.9419.1386-1.8007.194-2.6317-2.0224,1.8837-3.74,2.9641-6.5655,2.9641-4.1,0-7.3413-2.3549-7.3413-6.51v-4.6263c0-2.1609-.1385-4.0724-.1385-5.79,0-1.08-.1939-1.9667-1.3574-2.1331Z" transform="translate(0 0.1011)"/><path class="cls-1" d="M47.5665,125.1929c1.08-.277,1.7177-1.1081,1.7177-2.6595l.0829-16.4h1.1637l13.5464,14.9041v-9.53c0-3.435-.7479-4.2385-2.0776-4.4325v-.6093c.9142,0,1.8284.1107,2.7425.1107s1.856-.1107,2.77-.1107v.6093c-1.2189.2218-1.8284,1.1912-1.8284,3.4352l-.083,15.6243H64.659L50.8908,111.1477l.1109,10.5546c.0277,2.1608.6925,3.1582,2.0222,3.4906v.61c-.9142,0-1.8284-.1109-2.7425-.1109s-1.8008.1109-2.7149.1109Z" transform="translate(0 0.1011)"/><path class="cls-1" d="M73.0227,125.1929c1.1357-.277,1.4406-.7757,1.4406-1.9669v-8.0614c0-2.438-.2771-4.5987-.2771-5.9562a2.0146,2.0146,0,0,0-1.4406-2.2439v-.4985c1.3021,0,2.5765.1107,3.8785.1107,1.2743,0,2.5763-.1107,3.8783-.1107,7.5627,0,12.1613,3.3242,12.1613,9.5573,0,6.344-3.6011,9.7791-11.3857,9.7791-1.3852,0-2.77-.1109-4.1277-.1109-1.385,0-2.7425.1109-4.1276.1109Zm4.4048-.72a26.3232,26.3232,0,0,0,3.435.2216c5.2912,0,7.9507-3.2411,7.9507-8.56a8.1473,8.1473,0,0,0-8.3939-8.56c-.8865,0-1.7453.0554-2.8533.1108-.0279,2.4377-.1385,4.6539-.1385,6.9811Z" transform="translate(0 0.1011)"/><path class="cls-1" d="M97.5106,122.0347h1.0528a4.3842,4.3842,0,0,0,4.5433,2.9366,3.5845,3.5845,0,0,0,3.6011-3.4627c0-5.8453-9.4465-2.244-9.4465-9.7514,0-3.5737,3.13-5.6237,6.3993-5.6237a10.6925,10.6925,0,0,1,4.9311,1.2742l.2769,2.9643h-.9972a4.3725,4.3725,0,0,0-4.1831-3.0749,3.51,3.51,0,0,0-3.74,3.5182c0,4.8756,9.4465,2.05,9.4465,9.28,0,3.6843-2.9642,6.0392-6.4823,6.0392a11.6589,11.6589,0,0,1-5.4021-1.08Z" transform="translate(0 0.1011)"/><path class="cls-2" d="M47.4929,78.831v3.4952c0,.176.796.48.796.48H45.7826s.7488-.3036.7488-.4554v-2.947l-.78.13-.0116-.14Z" transform="translate(0 0.1011)"/><path class="cls-2" d="M63.5564,78.9086a2.2523,2.2523,0,0,0-1.859,1.7168,1.6743,1.6743,0,0,1,.8268-.2166,1.2128,1.2128,0,0,1,1.365,1.1756c0,.7671-.6585,1.3055-1.5977,1.3055a1.5907,1.5907,0,0,1-1.7343-1.6211,2.7443,2.7443,0,0,1,2.9794-2.4363Zm-1.2889,1.7972a1.1734,1.1734,0,0,0-.6345.2041,3.107,3.107,0,0,0-.0481.594c0,.4332.0562,1.1571.6664,1.1571.6021,0,.61-.563.61-1.0025C62.8615,81.2627,62.8375,80.7058,62.2675,80.7058Z" transform="translate(0 0.1011)"/><path class="cls-2" d="M58.2869,78.9086a2.2524,2.2524,0,0,0-1.8591,1.7168,1.6738,1.6738,0,0,1,.8268-.2166A1.2128,1.2128,0,0,1,58.62,81.5844c0,.7671-.6583,1.3055-1.5977,1.3055a1.5907,1.5907,0,0,1-1.7342-1.6211,2.7443,2.7443,0,0,1,2.9794-2.4363Zm-1.2893,1.7972a1.1731,1.1731,0,0,0-.6342.2041,3.107,3.107,0,0,0-.0481.594c0,.4332.0562,1.1571.6664,1.1571.6021,0,.61-.563.61-1.0025C57.5919,81.2627,57.5679,80.7058,56.9976,80.7058Z" transform="translate(0 0.1011)"/><path class="cls-2" d="M52.9806,78.9086a2.2524,2.2524,0,0,0-1.8591,1.7168,1.6751,1.6751,0,0,1,.827-.2166,1.2126,1.2126,0,0,1,1.3648,1.1756c0,.7671-.6583,1.3055-1.5978,1.3055a1.5907,1.5907,0,0,1-1.7342-1.6211,2.7444,2.7444,0,0,1,2.98-2.4363Zm-1.2891,1.7972a1.1731,1.1731,0,0,0-.6342.2041,3.0949,3.0949,0,0,0-.0482.594c0,.4332.0561,1.1571.6663,1.1571.6023,0,.61-.563.61-1.0025C52.2856,81.2627,52.2617,80.7058,51.6915,80.7058Z" transform="translate(0 0.1011)"/><path class="cls-2" d="M18.41,45.3984a5.6884,5.6884,0,0,1,1.2486.62,1.4736,1.4736,0,0,0-.1207.4179c-.0558.3394.0152.7219-.0738,1.2638A2.4975,2.4975,0,0,1,16.7,49.9471a2.6007,2.6007,0,0,1-1.9157-3.1554,4.8622,4.8622,0,0,1,.5235-1.3384,2.9394,2.9394,0,0,0-.0189-.337l1.2748.1424s-1.2879.8422-1.4017,1.5357a1.777,1.777,0,0,0,1.6349,2.0632,1.9477,1.9477,0,0,0,2.3585-1.49C19.2643,46.703,18.41,45.3984,18.41,45.3984Z" transform="translate(0 0.1011)"/><path class="cls-2" d="M30.3093,26.5183l-2.7215,2.8265s.1808-.8422-.0775-1.0909L25.401,26.2227c-.3111-.3-1.0829-.0467-1.0829-.0467l1.7212-1.7877s-.1961.858.0518,1.0966l2.1725,2.0919c.1952.188.2984.1756.4966-.03l.6448-.67c.34-.3532.3574-1.6271.3574-1.6271Z" transform="translate(0 0.1011)"/><path class="cls-2" d="M28.0927,22.4047l1.8106-1.4632s-.2444.7809-.005,1.077L31.72,24.2731c.2256.2791,1.0449.21,1.0449.21l-1.8105,1.4632s.2008-.7648-.0016-1.0152l-1.8406-2.2775C28.8733,22.3574,28.0927,22.4047,28.0927,22.4047Z" transform="translate(0 0.1011)"/><path class="cls-2" d="M34.18,22.4105c.2333.3808,1.0769.3707,1.0769.3707l-1.5107.9252s.2787-.6943.1219-.95l-1.7551-2.8654c-.1947-.0095-.7326-.075-.7326-.075l1.2858-.7875,4.1758,1.0991L35.687,18.2423c-.2754-.45-1.13-.3726-1.13-.3726l1.6105-.9865s-.3755.6764-.23.9135l2.0456,3.34-.3433.2105L32.7342,20.051Z" transform="translate(0 0.1011)"/><path class="cls-2" d="M60.7852,16.1834s.7106,1.2729,1.2764,1.3928a.7741.7741,0,0,0,.9794-.526c.226-1.067-2.08-1.5181-1.78-2.9361a1.3055,1.3055,0,0,1,1.701-.8594,5.1025,5.1025,0,0,1,1.0491.4167.2088.2088,0,0,0,.1742-.0454l.1505.032-.11,1.189s-.6991-1.1508-1.2505-1.2676c-.4011-.085-.7472.0662-.8065.3455-.14.6588,1.0235,1.0324,1.6557,2.0045a1.3,1.3,0,0,1,.2077,1.0317,1.458,1.458,0,0,1-1.8073,1.009,6.0348,6.0348,0,0,1-1.176-.4888.1667.1667,0,0,0-.1749.0829l-.1861-.04Z" transform="translate(0 0.1011)"/><path class="cls-2" d="M66.6786,14.3659l2.2057.7444s-.79.2124-.9119.5732l-.927,2.7465c-.1149.34.3827.9944.3827.9944L65.2225,18.68s.7533-.24.8562-.5453l.9365-2.7746C67.1369,15,66.6786,14.3659,66.6786,14.3659Z" transform="translate(0 0.1011)"/><path class="cls-2" d="M73.371,20.6023l-.4916.9737a5.0252,5.0252,0,0,1-1.9135-.4494c-1.6531-.8349-1.985-2.1589-1.3514-3.4135a2.4268,2.4268,0,0,1,3.4277-.8768,10.1412,10.1412,0,0,1,1.3025.9446.2427.2427,0,0,0,.239.0141l.1634.0824-.6039,1.1959-.2614-.1319a1.4947,1.4947,0,0,0-.818-1.7417,1.8058,1.8058,0,0,0-2.4725.9985,1.9007,1.9007,0,0,0,.6376,2.6674,1.652,1.652,0,0,0,.7851.1831l.4553-.9017c.1651-.3267-.4705-1.0658-.4705-1.0658l2.1695,1.0954S73.523,20.3018,73.371,20.6023Z" transform="translate(0 0.1011)"/><path class="cls-2" d="M76.7539,19.1461l1.91,1.33s-.8181-.0165-1.0356.2958l-1.6567,2.3788c-.2051.2943.09,1.0618.09,1.0618l-1.91-1.33s.79-.0205.9744-.2846L76.8,20.1949C77.0171,19.8826,76.7539,19.1461,76.7539,19.1461Z" transform="translate(0 0.1011)"/><path class="cls-2" d="M83.5783,31.8956l-2.4654-3.0527s.813.2844,1.0922.059l2.2781-1.84c.3359-.2712.1813-1.0685.1813-1.0685l1.5591,1.9306s-.8267-.3014-1.0944-.0851l-2.3463,1.8947c-.2109.17-.2115.2742-.0321.4963l.5842.7234c.3081.3816,1.57.5576,1.57.5576Z" transform="translate(0 0.1011)"/><path class="cls-2" d="M80.3253,27.9576l-2.8844-2.66s.8458.1629,1.0889-.101l1.985-2.1526c.2929-.3175.0238-1.0835.0238-1.0835l1.8241,1.6822s-.8619-.1774-1.0952.0754l-2.0446,2.2173c-.1837.1991-.1691.302.0408.4956l.6834.63c.36.3324,1.6346.3222,1.6346.3222Z" transform="translate(0 0.1011)"/><path class="cls-2" d="M87.4254,30.9744a2.5337,2.5337,0,0,0,.3569-1.1593l1.3013,2.1815s-.8488-.4653-1.1146-.0681l-1.447,2.1471,2.7728-.2322c.2663-.04.3064-.9791.3064-.9791l.9526,1.5966a3.1233,3.1233,0,0,0-1.3653-.2167l-4.2813.3581Z" transform="translate(0 0.1011)"/><path class="cls-2" d="M90.5622,36.9048l-.0048-.0138-2.5082.726c-.4647.1352-.7489.9054-.7489.9054l-.5474-1.53a1.6942,1.6942,0,0,0,1.2089.2284l2.5494-.7409c.3591-.1051.6276-.7454.6276-.7454l.52,1.4544-2.4142,2.38,3.3561.2533.53,1.482a1.0189,1.0189,0,0,0-.97-.2127l-2.4843,1.0751a1.4848,1.4848,0,0,0-.7341.9468l-.7766-2.171s.5.5516.9484.3915c.11-.04.2182-.086.3192-.13l2.39-1.0339-.005-.0137-4.04-.2964-.0594-.1654Z" transform="translate(0 0.1011)"/><path class="cls-2" d="M91.032,53.2523c-.4461-.0186-.9076.6878-.9076.6878l.0732-1.77s.4213.6181.7212.63l3.3572.1387c.1163-.1564.47-.5667.47-.5667l-.0621,1.5067-3.2391,2.8554,2.2088.0913c.5265.0217.9385-.73.9385-.73l-.0778,1.8869s-.3526-.6886-.6306-.7l-3.913-.1617.0166-.4024,3.8092-3.352Z" transform="translate(0 0.1011)"/><path class="cls-2" d="M94.187,59.4659l-.4541,2.2832s-.3125-.7562-.686-.83l-2.8429-.5659c-.3517-.07-.9371.5078-.9371.5078l.4543-2.2832s.3351.7161.651.7789l2.8722.5715C93.6176,60.002,94.187,59.4659,94.187,59.4659Z" transform="translate(0 0.1011)"/><path class="cls-2" d="M89.4588,71.8l.7307-1.4268-1.466-.7507-.54,1.0554a1.481,1.481,0,0,0,.0854.99l-1.2967-.6639a1.3418,1.3418,0,0,0,.9029-.6067l.49-.9578-1.173-.6007c-.28-.1434-.3655-.1213-.4622.0675l-.5572,1.0883c-.2167.4236.1542,1.3373.1542,1.3373l-.9829-.6021,2.0085-3.9224s.0068.9822.3262,1.1457l2.6,1.3311c.3518.18,1.0532-.2584,1.0532-.2584l-1.8382,3.59-.9783-.4187S89.3053,72.1,89.4588,71.8Z" transform="translate(0 0.1011)"/><path class="cls-2" d="M81.904,77.5882s-1.4551-.09-1.8615.3215a.7741.7741,0,0,0-.0867,1.1083c.7758.7667,2.4015-.93,3.4325.0886a1.3055,1.3055,0,0,1-.1959,1.8956,5.08,5.08,0,0,1-.9175.6578,2.7293,2.7293,0,0,0-.1641.28l-.9412-.7346s1.3461.0335,1.7423-.3675c.288-.2916.348-.6646.1449-.8652-.4788-.4735-1.4216.3034-2.581.31a1.3008,1.3008,0,0,1-.9807-.3826,1.458,1.458,0,0,1,.1276-2.066,6.0521,6.0521,0,0,1,1.0465-.7256.166.166,0,0,0,.0247-.1917l.1339-.1353Z" transform="translate(0 0.1011)"/><path class="cls-2" d="M80.3664,83.4526l-1.8339,1.4337s.2567-.7768.0225-1.0768l-1.7856-2.2837c-.2209-.2826-1.0412-.2267-1.0412-.2267l1.8339-1.4337s-.2133.7615-.0149,1.0151l1.8035,2.3069C79.5852,83.4873,80.3664,83.4526,80.3664,83.4526Z" transform="translate(0 0.1011)"/><path class="cls-2" d="M60.328,92.4462l-2.3156.2383s.6307-.5211.5918-.9l-.2966-2.8838c-.0369-.3565-.7614-.7456-.7614-.7456l2.3157-.2384s-.5855.5312-.5527.8516l.3,2.9127C59.6481,92.06,60.328,92.4462,60.328,92.4462Z" transform="translate(0 0.1011)"/><path class="cls-2" d="M55.7147,89.5275s-.9442-1.1109-1.5224-1.1186a.7743.7743,0,0,0-.8588.706C53.3189,90.2056,55.6691,90.2,55.65,91.65c-.0093.7027-.6306,1.185-1.5019,1.1734a5.0675,5.0675,0,0,1-1.11-.2052,2.7589,2.7589,0,0,0-.3159.0763l-.1232-1.1876s.9092.9932,1.4729,1.0006c.41.0056.72-.21.7239-.4955.009-.6733-1.2042-.814-2.0132-1.6446a1.3008,1.3008,0,0,1-.4044-.9718,1.4583,1.4583,0,0,1,1.5773-1.3408,6.02,6.02,0,0,1,1.2485.251,2.0419,2.0419,0,0,0,.3457-.1126Z" transform="translate(0 0.1011)"/><path class="cls-2" d="M42.9981,87.8836l.2873-1.0523A5.0225,5.0225,0,0,1,45.25,86.89c1.7867.4878,2.3763,1.7188,2.006,3.0747a2.4271,2.4271,0,0,1-3.1837,1.5439,10.19,10.19,0,0,1-1.4649-.6657,2.1827,2.1827,0,0,0-.4135-.0143l.3528-1.2922s.6976,1.42,1.432,1.62a1.8056,1.8056,0,0,0,2.2232-1.4722,1.9006,1.9006,0,0,0-1.1575-2.4863,1.65,1.65,0,0,0-.8058-.0227l-.2661.9744c-.1556.6356.6739.95.6739.95l-2.3446-.64S42.91,88.2084,42.9981,87.8836Z" transform="translate(0 0.1011)"/><path class="cls-2" d="M28.5706,78.2247l-.8995.9428,1.7479,1.6676.9095-.9535c.2678-.2806.0889-1.0686.0889-1.0686l1.7,1.6219s-.7953-.1314-1.0481.1335l-2.011,2.108c-.2527.2649-.084,1.053-.084,1.053l-1.7-1.622s.77.1683,1.0534-.1284l.7933-.8315L27.3729,79.48l-.7781.8156c-.2829.2966-.11,1.0587-.11,1.0587L24.79,79.7374s.7858.1628,1.0586-.1231l2.001-2.0975c.2629-.2754.0834-1.0738.0834-1.0738l1.695,1.617S28.8435,77.9386,28.5706,78.2247Z" transform="translate(0 0.1011)"/><path class="cls-2" d="M15.9911,60.0939l.0019.0146,2.6045-.1832c.4829-.0346.9226-.7278.9226-.7278l.2136,1.6108a1.6929,1.6929,0,0,0-1.1339-.477l-2.6482.1889c-.3729.0271-.77.5968-.77.5968l-.2032-1.5312,2.86-1.8195-3.2279-.9526-.207-1.56a1.02,1.02,0,0,0,.9038.4117l2.6547-.5294a1.4854,1.4854,0,0,0,.9167-.7716l.3032,2.2861s-.3734-.6446-.845-.5821c-.1163.0155-.2314.0381-.3393.06l-2.5539.5087.0018.0144L19.3334,57.79l.0231.174Z" transform="translate(0 0.1011)"/><path class="cls-2" d="M93.479,46.9862a2.5323,2.5323,0,0,0,.8241-.89l.2275,2.53s-.5632-.7873-.9752-.5444L91.567,49.2247l2.41,1.0975c.2572.08.6438-.69.6438-.69l.1662,1.8519a3.12,3.12,0,0,0-1.1364-.7872l-3.7572-1.6542Z" transform="translate(0 0.1011)"/><path class="cls-2" d="M92.3561,63.4844a2.5345,2.5345,0,0,0,1.1-.5115L92.7078,65.4s-.2229-.9419-.6961-.8731l-2.2733.3045,1.815,1.9288c.2077.1712.8571-.3948.8571-.3948l-.5476,1.777a3.1234,3.1234,0,0,0-.7536-1.159L88.2586,64.03Z" transform="translate(0 0.1011)"/><path class="cls-2" d="M17.6976,66.3991a2.53,2.53,0,0,0-.5883,1.0607l-.8241-2.4029s.7348.63,1.0769.2964l1.6585-1.5844-2.6024-.4911c-.2687-.0161-.4606.8235-.4606.8235l-.6033-1.7587a3.1241,3.1241,0,0,0,1.2915.4936l4.0434.71Z" transform="translate(0 0.1011)"/><path class="cls-2" d="M33.8372,82.4962c.2168-.313-.1929-1.1489-.1929-1.1489l2.1667,1.5s-.9223-.0956-1.1431.2236l-2.025,2.9533.71.4916c.4634.3208,1.3884-.0893,1.3884-.0893l-.7519.9022-3.828-2.65.5352-1.0522s-.0582,1.01.4052,1.331l.71.4919Z" transform="translate(0 0.1011)"/><path class="cls-2" d="M62.6959,88.1329c-.0866-.3708-.9813-.6276-.9813-.6276l2.5662-.6s-.69.62-.6012.9976l.8027,3.3761.841-.1969c.5489-.1283.8654-1.0894.8654-1.0894l.1647,1.163-4.5336,1.06-.4211-1.103s.71.7211,1.2587.5927l.8412-.1966Z" transform="translate(0 0.1011)"/><path class="cls-2" d="M72.78,84.1837c-.1915-.3291-1.1221-.3122-1.1221-.3122l2.2773-1.3264s-.4775.7948-.2823,1.13l1.816,3.0863.7465-.4347c.4871-.2837.5078-1.2954.5078-1.2954l.4982,1.0635-4.0231,2.3432-.726-.9309s.89.4813,1.3773.1974l.7463-.4346Z" transform="translate(0 0.1011)"/><path class="cls-2" d="M90.9652,44.8a.7189.7189,0,1,1,.7131.7247A.7189.7189,0,0,1,90.9652,44.8Z" transform="translate(0 0.1011)"/><path class="cls-2" d="M49.0912,90.014a.719.719,0,1,1,.7134.7247A.7192.7192,0,0,1,49.0912,90.014Z" transform="translate(0 0.1011)"/><path class="cls-2" d="M16.0686,52.4758a.719.719,0,1,1,.7131.7247A.7191.7191,0,0,1,16.0686,52.4758Z" transform="translate(0 0.1011)"/><path class="cls-2" d="M22.5082,31.9147A1.5935,1.5935,0,0,1,21.9368,29.6c.6539-.9,1.8865-.7288,2.84-.0359.8173.5935,1.2485,1.4948.65,2.318C24.8208,32.7169,23.64,32.7365,22.5082,31.9147Zm-.3566,1.0889a2.4043,2.4043,0,0,0,3.4317-.8007,2.52,2.52,0,0,0-.3785-3.6768,2.3808,2.3808,0,0,0-3.4194.7463A2.5638,2.5638,0,0,0,22.1516,33.0036Z" transform="translate(0 0.1011)"/><path class="cls-2" d="M41.2267,17.8405l-1.442.455.0654-2.127Zm.9188-.5847,1.2836-.4866a2.2869,2.2869,0,0,1,1.2463.0276l-1.0076-1.16s-.0695.6354-.4468.7761l-1.3485.5474-1.1866-1.449,1.9509-.6486a2.4835,2.4835,0,0,1,1.1057.1664l-.8432-.7882L38.7527,15.665a.7029.7029,0,0,1,.4337.8509l-.0586,3.118a3.2569,3.2569,0,0,1-.3955,1.1053l1.5777-.5875s-.6838-.2843-.6426-.6354l.0787-.8944,1.7328-.5286.9735,1.194,3.8338-1.47-.8121-.89s.2838.6576-.1621.8236l-2.04.7973Z" transform="translate(0 0.1011)"/><path class="cls-2" d="M21.5516,37.5168c.3386.1575,1.08-.3774,1.08-.3774l-1.0808,2.3228s-.04-.85-.4253-1.03l-2.6214-1.22c-.3187-.1482-1.0752.3151-1.0752.3151.1345-.3411.2385-.5994.3453-.8808.1463-.3841.3488-.8712.46-1.11.4541-.9757.8272-1.4479,1.3135-1.6255a1.1351,1.1351,0,0,1,.9048.0337,1.2675,1.2675,0,0,1,.6115,1.4793c.5689-.2681,1.2013-.2564,1.8917-.5082a7.2712,7.2712,0,0,0,1.058-.5735c-.0612.1491-.0921.2155-.1847.4147-.3831.8228-.66,1.1057-1.1171,1.2726-.4863.1772-1.3622.2379-1.9248.4929l-.2441.5242Zm-1.2873-.5991.12-.259c.3737-.803.3443-1.3817-.3658-1.7121-.7036-.3275-1.206.0927-1.5055.7364l-.1606.3452Z" transform="translate(0 0.1011)"/><path class="cls-2" d="M18.8755,43.1385l.6254.5128c.2732.2212.895-.4645.895-.4645l-.57,1.922a2.3666,2.3666,0,0,0-.558-1.0526l-3.5-2.9666h0l4.6042-.7138a2.7607,2.7607,0,0,0,1.0041-.4959l-.6988,2.357s-.178-.879-.5207-.821l-.8106.1343ZM17.3967,41.874,18.6476,42.9l.3783-1.2763Z" transform="translate(0 0.1011)"/><path class="cls-2" d="M22.2992,69.5321c.33-.1752.35-1.0892.35-1.0892l1.2022,2.2625s-.7028-.48-1.0778-.2812L20.22,71.781c-.31.1648-.3964,1.0478-.3964,1.0478-.1912-.313-.3347-.5516-.4948-.8065-.2182-.3482-.485-.8034-.6087-1.0361a2.7441,2.7441,0,0,1-.5054-2.0276,1.1356,1.1356,0,0,1,.5722-.7018,1.268,1.268,0,0,1,1.5492.4037c.1288-.6156.5191-1.113.7343-1.8161a7.2627,7.2627,0,0,0,.18-1.19c.0821.1389.1163.2035.22.3975A1.9792,1.9792,0,0,1,21.812,67.71c-.1514.4949-.631,1.2306-.7667,1.8332l.2714.5106Zm-1.23.6165-.134-.252c-.4157-.7823-.8952-1.1077-1.587-.74-.6852.364-.6525,1.0182-.3194,1.6452l.1786.3362Z" transform="translate(0 0.1011)"/><path class="cls-2" d="M21.9545,76.3276a2.3812,2.3812,0,0,1,.3154-3.4858,2.52,2.52,0,0,1,3.6205.7437,2.4041,2.4041,0,0,1-.267,3.5136A2.5639,2.5639,0,0,1,21.9545,76.3276Zm3.5828-2.69c-.6056-.8177-1.5947-.6772-2.4064-.0761-.9473.7016-1.481,1.8258-.8189,2.72a1.5934,1.5934,0,0,0,2.38.15C25.8153,75.6,26.1516,74.4669,25.5373,73.6376Z" transform="translate(0 0.1011)"/><path class="cls-2" d="M37.6057,89.17a2.38,2.38,0,0,1-1.39-3.2117A2.52,2.52,0,0,1,39.7505,84.88a2.4042,2.4042,0,0,1,1.4462,3.2133A2.5638,2.5638,0,0,1,37.6057,89.17Zm1.86-4.0759c-.923-.4284-1.7244.168-2.15,1.0844-.4962,1.069-.4273,2.3117.5822,2.78A1.5932,1.5932,0,0,0,40.06,87.9524C40.648,86.6842,40.4014,85.5286,39.4653,85.0942Z" transform="translate(0 0.1011)"/><path class="cls-2" d="M84.2735,73.71c-.2986-.224-1.1346.1468-1.1346.1468l1.5365-2.05s-.1357.8406.204,1.0951l2.3139,1.7341c.2812.2108,1.117-.0867,1.117-.0867-.2019.3058-.3569.5374-.52.7907-.2224.3457-.5207.7805-.6788.9913-.6454.8612-1.1079,1.2464-1.62,1.32a1.1356,1.1356,0,0,1-.8785-.2193A1.2677,1.2677,0,0,1,84.32,75.858c-.6119.1451-1.2283.0033-1.9559.1075a7.2612,7.2612,0,0,0-1.1536.3431c.0909-.1332.1346-.1919.2664-.3676.5442-.7264.8737-.9459,1.3553-1.0151.5124-.0735,1.3822.0477,1.9852-.0856l.3468-.4629Zm1.1152.8729-.1711.2287c-.5313.7087-.6219,1.281.005,1.7509.621.4655,1.1991.1577,1.625-.4105l.2281-.3047Z" transform="translate(0 0.1011)"/><path class="cls-2" d="M69.5871,86.4867l.0174-.8085c.0054-.3516-.9179-.4175-.9179-.4175l1.8636-.7382a2.3666,2.3666,0,0,0-.4833,1.0891l-.173,4.5843h0L66.49,87.015a2.7577,2.7577,0,0,0-1.01-.4838l2.2855-.9053s-.5816.6824-.3245.9161l.6062.5549Zm-.0815,1.9439.0345-1.617-1.2376.4905Z" transform="translate(0 0.1011)"/><path class="cls-2" d="M55.0709,23.0053a2.4618,2.4618,0,0,0-.7283-.9256l2.461.1666s-.8406.42-.6705.8525l.794,2.0809,1.419-2.145c.1156-.2343-.5637-.7221-.5637-.7221l1.8014.1222a3.0321,3.0321,0,0,0-.9279.97L56.4981,26.757Z" transform="translate(0 0.1011)"/><path class="cls-2" d="M34.8582,30.5272a2.46,2.46,0,0,0-1.1612-.197l1.9358-1.5288s-.3406.876.0754,1.0817l1.9857,1.0092L37.3054,28.35c-.0717-.2513-.9028-.1567-.9028-.1567L37.82,27.074a3.0329,3.0329,0,0,0-.0361,1.3422l.6518,3.9329Z" transform="translate(0 0.1011)"/><path class="cls-2" d="M72.803,29.1721a2.4589,2.4589,0,0,0,.003-1.1776l1.8269,1.6572s-.92-.1917-1.0545.2527l-.6853,2.248,2.4608-.9255c.2359-.112.0057-.9161.0057-.9161l1.3373,1.2131a3.032,3.032,0,0,0-1.33.1855L71.5955,33Z" transform="translate(0 0.1011)"/><path class="cls-2" d="M42.6275,28.7109c.157.3347,1.0585.3984,1.0585.3984l-2.3169,1.0871s.53-.7277.37-1.0687L40.248,25.9864l-.7594.3563c-.4956.2326-.6026,1.2094-.6026,1.2094l-.3907-1.0716L42.5882,24.56l.6223.9628s-.82-.542-1.3152-.3095l-.7593.3565Z" transform="translate(0 0.1011)"/><path class="cls-2" d="M61.2122,23.7741l-.0137-.0042-.8816,2.3774c-.1629.4408.2743,1.1075.2743,1.1075l-1.5107-.4565a1.6438,1.6438,0,0,0,.8766-.8119l.894-2.4181c.1252-.3408-.22-.92-.22-.92l1.4361.434.4634,3.2589,2.1358-2.4737,1.4631.442s-.6123.1344-.7263.6346l-.5954,2.56a1.4431,1.4431,0,0,0,.3152,1.12L62.98,27.9764s.72-.0722.8535-.5143c.0328-.1089.059-.22.083-.324l.5734-2.463-.0137-.004-2.5646,2.9827-.1632-.05Z" transform="translate(0 0.1011)"/><path class="cls-2" d="M78.7314,34.5879,77.774,33.36l-1.2613.9837.7084.9081c.2406.3082.9064.33.9064.33l-1.1154.87a1.3031,1.3031,0,0,0-.165-1.0435l-.6426-.8239-1.0089.787c-.2409.188-.2564.2721-.13.4347l.73.9362c.2842.3643,1.2406.4115,1.2406.4115l-.9324.6191-2.6319-3.3742s.8677.3959,1.1424.1817l2.2366-1.7445c.3025-.2359.2036-1.0333.2036-1.0333l2.409,3.0885-.7691.69S78.9326,34.8457,78.7314,34.5879Z" transform="translate(0 0.1011)"/><path class="cls-2" d="M50.9617,26.0394c.0375.3607.8531.7117.8531.7117l-2.4745.258s.6884-.4579.6456-.868l-.2913-2.7925c-.0352-.34-.7987-.7388-.7987-.7388.3513-.0581.6184-.1.906-.1516.3931-.07.9-.1438,1.1546-.1705a2.6645,2.6645,0,0,1,2.0092.2836,1.1033,1.1033,0,0,1,.4234.7708,1.2308,1.2308,0,0,1-.9277,1.2473c.5073.34.813.8729,1.3672,1.3227a7.06,7.06,0,0,0,1.0056.5955c-.1548.0233-.2255.0307-.4376.0528a1.9216,1.9216,0,0,1-1.6175-.296c-.3905-.3166-.878-1.0163-1.3709-1.3579l-.5588.0582Zm-.1173-1.3663.2757-.0288c.8556-.0893,1.323-.4026,1.2443-1.1591-.0783-.7495-.6788-.9584-1.3649-.8868l-.3676.0384Z" transform="translate(0 0.1011)"/><path class="cls-2" d="M28.2826,36.9894c.2039-.3261.4465-.6942.6135-.9678.1875-.3028.3317-.5317.5325-.8162.82-1.1615,1.3505-1.6051,2.0836-1.7316a2.0642,2.0642,0,0,1,1.5639.3732,2.2738,2.2738,0,0,1,.92,1.4582,3.0785,3.0785,0,0,1-.7974,2.387l-1.3035,1.847s.0792-.7533-.2518-.9869L29.4014,36.97C28.9891,36.6788,28.2826,36.9894,28.2826,36.9894Zm3.8856.7327c.3891.2745.4824.2534.7981-.1938a1.8148,1.8148,0,0,0-.4255-2.7627,2.0652,2.0652,0,0,0-1.4822-.4025,2.0381,2.0381,0,0,0-1.3118.9711,3.771,3.771,0,0,0-.2908.4733Z" transform="translate(0 0.1011)"/><path class="cls-2" d="M28.7839,43.0346l.5527.558c.2417.241.911-.3591.911-.3591l-.7427,1.7993A2.2992,2.2992,0,0,0,29.071,43.96l-3.0834-3.2157h0l4.5187-.2288a2.6788,2.6788,0,0,0,1.0194-.3781l-.911,2.2065s-.0838-.8667-.4206-.8451l-.7963.0488ZM27.482,41.6653l1.1054,1.1158.4934-1.1951Z" transform="translate(0 0.1011)"/><path class="cls-2" d="M70.0616,26.076a2.3121,2.3121,0,0,1,1.1429,3.2007,2.4467,2.4467,0,0,1-3.4942.82,2.3348,2.3348,0,0,1-1.1969-3.2058A2.49,2.49,0,0,1,70.0616,26.076ZM68,29.9073c.867.4739,1.6816-.0533,2.152-.9139.5488-1.0044.5611-2.2128-.3872-2.7311a1.5471,1.5471,0,0,0-2.1586.8376C66.9554,28.2912,67.1208,29.4266,68,29.9073Z" transform="translate(0 0.1011)"/><path class="cls-2" d="M70.1891,33.3751c-1.4976-1.2263-.9916-1.0477-1.4006-2.3431s-.1293-3.1315-.42-3.337.65-.2787.9691,2.4958S70.1891,33.3751,70.1891,33.3751Z" transform="translate(0 0.1011)"/><path class="cls-2" d="M32.9891,89.4708a42.5729,42.5729,0,1,1,.2507.1468l-.6894-.3738-.4883.7039.6986.4546a43.7541,43.7541,0,1,0-.251-.1471l.5292.2672.4166-.7471Z" transform="translate(0 0.1011)"/><path class="cls-2" d="M37.5412,80.4032A32.6038,32.6038,0,0,1,46.5,21.0805l.2525-.7493a33.2638,33.2638,0,0,0-9.5575,60.6314l.5073.2753.3022-.53Z" transform="translate(0 0.1011)"/><path class="cls-2" d="M37.5026,81.1507a33.2583,33.2583,0,1,0,10.924-61.183l-.1085.698A32.5845,32.5845,0,1,1,37.803,80.5017l-.5009-.2856-.5034.4443Z" transform="translate(0 0.1011)"/><path class="cls-2" d="M54.314,16.851a1.9342,1.9342,0,0,1-1.5062-.8485" transform="translate(0 0.1011)"/><path class="cls-2" d="M54.8,14.1866,55.9151,13.11a1.9339,1.9339,0,0,1,.72,1.5718l-1.5456.1272,1.3854.734a1.9353,1.9353,0,0,1-1.2724,1.1705l-.6151-1.4368L54.314,16.851a1.9342,1.9342,0,0,1-1.5062-.8485l1.1795-1.0586-1.5056.2393a1.9335,1.9335,0,0,1,.3416-1.6947l1.2951.7817-.6824-1.3008a1.934,1.934,0,0,1,1.7173-.199Z" transform="translate(0 0.1011)"/><path class="cls-2" d="M67.7386,45.1919m2.9294-1.5586a.9428.9428,0,0,1-.7884-.6106.5458.5458,0,0,1,.2082-.5776.334.334,0,0,0,.0359.0393c.0229.0259.0388.045.0388.045l.002-.0117c.0658.0465.1575.0085.2472.0044.2018-.0089.2407-.0863.2326-.2712a.2958.2958,0,0,0-.361-.2953.8.8,0,0,1-.5913-.0133c-.0549-.0376-.0649-.2055-.0213-.346.0138-.0827.0913-.2555.0894-.299-.0057-.1271-.1584-.2178-.297-.2117a.2644.2644,0,0,0-.2619.2456c.0079.179.1222.2508.2.3394a.2354.2354,0,0,1,.0347.3119,1.6943,1.6943,0,0,1-.3754.1672l.007.0141a.3854.3854,0,0,0-.0808-.0053c-.2016.009-.3416.1053-.3335.29a.2886.2886,0,0,0,.3185.3055.3733.3733,0,0,0,.3016-.17.6435.6435,0,0,1,.2576.5165c-.04.2852-.0612.5167-.5986.6842a.73.73,0,0,1-.7118-.126.5056.5056,0,0,1-.5259.3367c-.6062-.0693-.7151-.8-.7151-.8a.4227.4227,0,0,0,.3769-.3163c.1067-.2751-.0757-.4446-.3733-.4848-.1794-.0241-.4075.2538-.6578.1465s.13-.5977-.1973-.7841c-.3019-.1717-.4759.2206-.4759.2206a11.7255,11.7255,0,0,1,1.0654,1.3479c.4825.6959,1.1586,1.524,1.1586,1.524l-.3439.23s-.4673-.7261-1.2062-1.7238c-.63-.8507-1.1216-1.3809-1.1216-1.3809s-.0189-.0715.1568-.2517c.2234-.2293.5639-.5458.973-.361s.2023.8263.2023.8263a.7016.7016,0,0,1,.5871-.1938.7523.7523,0,0,1,.6838.7677.782.782,0,0,1-.3941.6171s-.0462.192.3319.1533c.23-.0237.383-.3639.383-.3639.017-.006.57.5081.87.1173a.9389.9389,0,0,0,.0689-.1263.6669.6669,0,0,1-.1445.018.7.7,0,0,1-.02-1.4.5785.5785,0,0,1,.2347.0263h0a.6074.6074,0,0,1-.3473-.523.7217.7217,0,0,1,.6588-.6583.7459.7459,0,0,1,.7227.6127.6791.6791,0,0,1-.194.4576h0a.5353.5353,0,0,1,.4132-.1458.7.7,0,0,1,.02,1.4.6473.6473,0,0,1-.09-.0082l.0158.0158a.9277.9277,0,0,0,.4474.192c.4635.0843.5175-.2806.5175-.2806a.5172.5172,0,0,0,.4438.1389c.3607-.1183.2859-.3406.2859-.3406a.6876.6876,0,0,1-.6174-.3661.5383.5383,0,0,1,.16-.83,1.0555,1.0555,0,0,1,.7372-.0794s-.3932-.4613-.0951-.7966.7281-.1843,1.0255-.066a3.3493,3.3493,0,0,1,.3814.1773,5.7612,5.7612,0,0,0-.541,1.56c-.2967,1.34-.4723,2.066-.4723,2.066l-.3669-.1s.2072-1.1636.4177-2.02a4.361,4.361,0,0,1,.4544-1.2751s-.3667-.3265-.5723-.0469c-.2231.3038.29.537.1052.7372s-.5166-.0014-.67.0938c-.2556.1579-.2322.259-.0833.4692a.4461.4461,0,0,0,.4585.1315s.2375.7382-.2878,1.0483a.6087.6087,0,0,1-.6627-.0547S71.294,43.6466,70.668,43.6333Z" transform="translate(0 0.1011)"/><path class="cls-2" d="M67.4481,44.9213c-.0423-.368,1.0831-.7957,2.5133-.9551s2.6239.01,2.666.3778-1.0832.7957-2.5134.9551S67.49,45.2893,67.4481,44.9213Zm2.4013.0221c.87-.0916,1.4519-.2524,1.4127-.4847-.0253-.1482-.7385-.1959-1.6087-.1043s-1.5611.2866-1.5428.4357S68.9792,45.0348,69.8494,44.9434Z" transform="translate(0 0.1011)"/><path class="cls-2" d="M76.6482,43.9024m2.9294-1.5589a.9425.9425,0,0,1-.7884-.61.5462.5462,0,0,1,.2085-.5775.3231.3231,0,0,0,.0358.0392c.023.026.0389.0449.0389.0449l.0018-.0115c.0658.0465.1576.0083.2474.0044.2015-.009.24-.0863.2324-.2712a.2958.2958,0,0,0-.361-.2954.8.8,0,0,1-.5912-.0133c-.055-.0375-.0648-.2054-.0215-.3459.0139-.0828.0914-.2555.09-.299-.0056-.1272-.1582-.2179-.297-.2118a.2643.2643,0,0,0-.2617.2456c.0079.1791.1222.2509.2.3394a.2355.2355,0,0,1,.0345.3119,1.6925,1.6925,0,0,1-.3754.1673l.0071.0141a.3849.3849,0,0,0-.0807-.0053c-.2017.0087-.3417.1052-.3337.29a.2887.2887,0,0,0,.3185.3054.3726.3726,0,0,0,.3015-.17.643.643,0,0,1,.2577.5165c-.04.2852-.0612.5167-.5986.6843a.73.73,0,0,1-.7118-.126.5053.5053,0,0,1-.5258.3366c-.6062-.069-.7151-.8-.7151-.8a.4228.4228,0,0,0,.3769-.3164c.1068-.2748-.0758-.4444-.3735-.4846-.1793-.0242-.4074.2539-.6578.1464s.13-.5976-.1973-.784c-.3016-.1717-.4756.2206-.4756.2206a11.72,11.72,0,0,1,1.0654,1.3478c.4825.696,1.1586,1.5241,1.1586,1.5241l-.344.23s-.4672-.7261-1.2063-1.7238c-.63-.8507-1.1214-1.3807-1.1214-1.3807s-.019-.0716.1567-.252c.2235-.2292.5639-.5456.9731-.3609s.202.8265.202.8265a.7023.7023,0,0,1,.5871-.194.7531.7531,0,0,1,.6841.7678.7824.7824,0,0,1-.3943.617s-.046.1923.3319.1533c.23-.0237.3831-.364.3831-.364.0171-.006.57.5082.87.1174a.94.94,0,0,0,.0691-.1264.6748.6748,0,0,1-.1445.0182.7.7,0,0,1-.0195-1.4.5765.5765,0,0,1,.2346.0263h0a.6072.6072,0,0,1-.3471-.5231.7214.7214,0,0,1,.6585-.6583.7462.7462,0,0,1,.7228.6127.6792.6792,0,0,1-.1942.4576h0a.5361.5361,0,0,1,.4134-.1457.7.7,0,0,1,.02,1.4.6675.6675,0,0,1-.09-.0083l.0158.0159a.926.926,0,0,0,.4475.1919c.4635.0843.5174-.2805.5174-.2805a.5181.5181,0,0,0,.4437.1391c.361-.1186.2859-.3408.2859-.3408a.6879.6879,0,0,1-.6174-.3662.5383.5383,0,0,1,.16-.83A1.0558,1.0558,0,0,1,81.22,40.1s-.3934-.4613-.095-.7967.728-.1842,1.0253-.0658a3.3358,3.3358,0,0,1,.3816.1771,5.7587,5.7587,0,0,0-.5411,1.56c-.2968,1.34-.4724,2.0661-.4724,2.0661l-.3668-.1s.2073-1.1636.4175-2.02a4.3555,4.3555,0,0,1,.4546-1.2748s-.3669-.3266-.5724-.047c-.2232.3038.29.5371.1052.7372s-.5165-.0013-.67.0938c-.2555.1578-.2323.2591-.0833.4692a.4458.4458,0,0,0,.4584.1316s.2375.7381-.2879,1.0481a.6083.6083,0,0,1-.6626-.0546S80.2039,42.3571,79.5776,42.3435Z" transform="translate(0 0.1011)"/><path class="cls-2" d="M76.3578,43.6317c-.0421-.368,1.0833-.7956,2.5134-.9551s2.6238.01,2.6658.3779-1.083.7955-2.5133.9551S76.4,44,76.3578,43.6317Zm2.4015.0221c.87-.0915,1.4519-.2524,1.4124-.4846-.025-.1482-.7382-.196-1.6085-.1044s-1.561.2866-1.5429.4357S77.8891,43.7452,78.7593,43.6538Z" transform="translate(0 0.1011)"/><path class="cls-2" d="M72.9638,49.9841m2.9294-1.5586a.9426.9426,0,0,1-.7884-.6106.5458.5458,0,0,1,.2082-.5775.3412.3412,0,0,0,.0359.0392c.023.0259.0389.0451.0389.0451l.002-.0117c.0658.0464.1575.0083.2471.0043.2017-.0088.2407-.0862.2327-.271a.2959.2959,0,0,0-.361-.2954.8.8,0,0,1-.5914-.0135c-.0548-.0374-.0648-.2052-.0213-.3457.0138-.0828.0914-.2557.0894-.2992-.0056-.1272-.1584-.2179-.2969-.2118a.2643.2643,0,0,0-.2617.2458c.0077.179.122.2508.2.3394a.2349.2349,0,0,1,.0345.3116,1.6851,1.6851,0,0,1-.3753.1675l.007.014a.4057.4057,0,0,0-.0808-.0053c-.2016.0089-.3416.1052-.3334.29a.2883.2883,0,0,0,.3185.3055.3733.3733,0,0,0,.3015-.17.6439.6439,0,0,1,.2577.5165c-.04.2854-.0613.5168-.5987.6843a.73.73,0,0,1-.7118-.126.5055.5055,0,0,1-.526.3367c-.606-.0691-.715-.8-.715-.8a.423.423,0,0,0,.377-.3164c.1066-.2751-.0758-.4446-.3734-.4847-.1793-.0242-.4075.2538-.6578.1465s.13-.5978-.1973-.7841c-.3016-.1717-.4759.2205-.4759.2205a11.7027,11.7027,0,0,1,1.0654,1.3479c.4825.6961,1.1585,1.524,1.1585,1.524l-.3438.23s-.4673-.7262-1.2062-1.7239c-.63-.8508-1.1215-1.3809-1.1215-1.3809s-.019-.0714.1568-.2519c.2233-.229.5639-.5457.9731-.3608s.2021.8263.2021.8263a.7015.7015,0,0,1,.5871-.1939.7527.7527,0,0,1,.6839.7677.7821.7821,0,0,1-.3942.6172s-.0461.1921.3318.1531c.23-.0234.3832-.3638.3832-.3638.0169-.0059.57.5081.87.1172a.9023.9023,0,0,0,.0689-.1261.6985.6985,0,1,1-.164-1.3822.5779.5779,0,0,1,.2349.0263h0a.6078.6078,0,0,1-.3475-.5231.7217.7217,0,0,1,.6588-.6582.7457.7457,0,0,1,.7227.6127.6793.6793,0,0,1-.194.4576h0a.5348.5348,0,0,1,.4132-.1458.7.7,0,0,1,.0195,1.4.6179.6179,0,0,1-.09-.008l.0157.0157a.9284.9284,0,0,0,.4474.1919c.4635.0844.5175-.28.5175-.28a.5171.5171,0,0,0,.4438.139c.3607-.1186.2859-.3407.2859-.3407a.6879.6879,0,0,1-.6174-.366.5385.5385,0,0,1,.16-.83,1.0552,1.0552,0,0,1,.7372-.0793s-.3932-.4613-.095-.7968.728-.184,1.0254-.0657a3.33,3.33,0,0,1,.3817.1773,5.7484,5.7484,0,0,0-.5412,1.56c-.2968,1.34-.4723,2.0661-.4723,2.0661l-.367-.1s.2072-1.1637.4177-2.02a4.3627,4.3627,0,0,1,.4544-1.275s-.3667-.3267-.5723-.0469c-.2231.3037.29.5369.1052.7371s-.5163-.0015-.67.0937c-.2556.158-.2322.2591-.0833.4693a.4463.4463,0,0,0,.4586.1317s.2374.7379-.2879,1.048a.6085.6085,0,0,1-.6626-.0547S76.5192,48.4388,75.8932,48.4255Z" transform="translate(0 0.1011)"/><path class="cls-2" d="M72.6733,49.7137c-.042-.3682,1.0832-.7957,2.5133-.9551s2.6239.01,2.666.3776-1.0832.7958-2.5133.9552S72.7154,50.0817,72.6733,49.7137Zm2.4014.0218c.87-.0914,1.4519-.2522,1.4126-.4844-.0252-.1484-.7385-.1959-1.6086-.1046s-1.5611.2867-1.5429.436S74.2045,49.8271,75.0747,49.7355Z" transform="translate(0 0.1011)"/><path class="cls-2" d="M57.5925,40.6279c-1.16,1.2875-.3993,3.1364-.6647,4.7706-.4587,1.33-1.8575,2.171-2.2744,3.5209a3.1746,3.1746,0,0,0,.3541,2.4619c.0385-.1038-.0661-.1629-.0889-.2447-.2282-1.6.2705-2.7426,1.6615-4.1017,2.1213-2.3952-.36-4.3334,1.6516-6.1377Z" transform="translate(0 0.1011)"/><path class="cls-2" d="M62.5363,55.7413a10.0976,10.0976,0,0,0,2.5584-.3987c.9365-.2824,1.6907-.5466,2.5581-.8479A15.1284,15.1284,0,0,1,72.5294,53.44l.2367,0a5.4109,5.4109,0,0,1,1.5513.247,5.32,5.32,0,0,1,.8395.4546c1.2474,1.0824,1.3325,1.69,2.9066,2.6644.7074.27,1.3769,1.0194,1.9369,1.1692a11.6527,11.6527,0,0,1-.9782-.8461A42.714,42.714,0,0,0,75.63,53.79a5.9025,5.9025,0,0,0-2.4512-.7789,10.218,10.218,0,0,0-5.1672.8074,19.7849,19.7849,0,0,1-3.7948.8881,3.1186,3.1186,0,0,1-1.5794-.0859c-.212-1.6954-.8175-1.3624-.5959-3.3643a9.1567,9.1567,0,0,0-.4158-6.3119A2.2892,2.2892,0,0,0,61.32,42.77c-.4655-.4614-1.7247-.5718-1.97.2585.1411.6553,1.0005.2564,1.42.5543.4978.1307.4589.7292.3782,1.0521-.1182.9711-1.2417,1.4708-1.9782,1.6551.2828.5653,1.408.1967,1.7713-.1361a5.3606,5.3606,0,0,1,.7871,2.1194c.093,1.9334-.4643,1.8468-1.1907,3.0882a3.4568,3.4568,0,0,0,.2017,2.8461c-.1412-2.0185.1212-2.14.6862-3.048a7.1267,7.1267,0,0,0-.1817,1.6148c.0243.9382.5149,1.211.55,2.0538a2.92,2.92,0,0,1-.6509,1.6c-.8824,1.1623-2.4423,1.0295-3.068,3.9966,1.15-1.6956,1.4128-2.14,2.4826-2.7453C61.9913,57.0735,62.2116,56.5985,62.5363,55.7413Z" transform="translate(0 0.1011)"/><path class="cls-2" d="M51.6619,45.9467c.525.3773.6416.833,1.0854,1.2538-.208-.0551-1.4659-.987-2.1458-.72-.9657.0877-2.25.9561-3.0977.0521a2.63,2.63,0,0,1-1.0637-1.82,2.7221,2.7221,0,0,0,2.72,1.5958,5.3636,5.3636,0,0,1,1.5529-.2,1.5186,1.5186,0,0,1,1.08.3487,2.21,2.21,0,0,0-1.5649-.7121c-1.4231.03-2.9066.6662-3.7886-1.0329.8215.6392,2.5178.7044,3.9309.6819A2.0939,2.0939,0,0,1,51.6619,45.9467Zm-2.1842-2.4074c-.0969.229-.3567.5242-.186.7463l.3983-.505A.7739.7739,0,0,1,49.4777,43.5393Zm.901.5732a1.15,1.15,0,0,1,.2611.5285c.1863.0361.24-.2742.3835-.2986Zm.2613,1.1019c-.1345-.4081-.2536-.8139-.6886-.9052-.4388-.2355-.8419.8669-.9891-.0149-.1784-.51.4187-.891-.1464-1.3148-.4643-.7064.2219-.868.0266-1.6271-.0355-.5552-.1277-1.2794.6446-1.3147a6.5046,6.5046,0,0,1,3.4664.06,1.2276,1.2276,0,0,0,.4624-.625,2.1148,2.1148,0,0,1,.865.08c.343.1411.7324.357.7324.357-.3345.0424-.9091.1022-.8688.5662.2221.5452.74-.2185,2.1276.6814.106.1173.3079.19.3531.5383-.6559-.2944-1.0034-.1909-1.5419-.434a1.5745,1.5745,0,0,0-.9993-.0791c-.1664.03-.8481.5215-.8227.1682a2.43,2.43,0,0,0-.0956-.5416c-.1063-.3329-.2577-.2994-.5552-.3989a5.9813,5.9813,0,0,0-2.9268-.1007.6506.6506,0,0,0-.3105.8634c.2684.5351.3658.4481.6538.4335.2422-.1413.3794-.4977.79-.5292.3045.0195.5563.0057.6473.3328l.005.1852c-.11-.2441-.4385-.1353-.6051-.0594-.0757.0758-.1364.1513-.0757.2422.1079.1824.2352.0969.4009.1336-.1462.2542-.8252.3324-1.2693.281-.161-.021-.1757.2183-.257.2616-.1591.21-.06.4012.0079.6262.6785.817,1.8266.8791,2.707,1.4528a1.429,1.429,0,0,1,.4845.6963c-.4171-.1949-.5181.4517-.5148.5754l.1854-.1135a3.335,3.335,0,0,0,.511-.25c.2325.2205.1515.5753.2142.859a7.1984,7.1984,0,0,1,.1794-.8186,5.8016,5.8016,0,0,1-.6307,5.3136c-.7874,1.6148-.6912,1.9508-.6057,4.138-1.07-2.2608-.26-3.3982-.0352-4.797a.4252.4252,0,0,0-.1513-.4259,2.0865,2.0865,0,0,1-.53,1.6048,2.9349,2.9349,0,0,0-.439,3.0126,4.6348,4.6348,0,0,1,.51,2.4624,5.5162,5.5162,0,0,0-.0607,2.947h0a4.3961,4.3961,0,0,1-.5215-3.0713,3.2912,3.2912,0,0,0-.6062-2.1735l.28.239c-.2725,1.8569-2.8157,2.0387-1.8771,4.5517a8.5049,8.5049,0,0,1,1.09,2.19c-.5392-.9124-1.1923-.9774-1.6508-1.9537-1.2215-.2352-2.1917.6535-3.3751,1.02a2.1766,2.1766,0,0,1-2.5281-.4845c2.15.7873,3.6354-.6192,5.0011-1.15.7755-.3465.4574-.9066.56-1.3948.2491-1.469,1.6369-1.4088,2.0523-2.82a6.7592,6.7592,0,0,1,.2132-2.7035c.3633-.7872.9329-.5706,1.0114-1.5721.34-1.1624-1.379-1.2756-1.0426-2.711a2.5233,2.5233,0,0,0,.9193.6064,5.7466,5.7466,0,0,1,1.65,1.2294,3.3,3.3,0,0,0-.7267-1.11l-.5854-.4441c.0557-.228.3285-.3585.551-.5156-.0649.6608.7467.9687,1.0663,1.372a5.492,5.492,0,0,0-.2577-2.7117.5417.5417,0,0,0-.4916.22,1.9031,1.9031,0,0,1,.0068-1.402c.0076-.2419-.2087-.0917-.33-.0716a2.033,2.033,0,0,0-.3053.1915l-.3237-.5474a1.2366,1.2366,0,0,0-.6351.6934" transform="translate(0 0.1011)"/><path class="cls-2" d="M60.515,44.2331a1.168,1.168,0,0,1-.2244.85c-.0986.1675-.2833.193-.4257.2586.0141-.2475.542-.5294.2245-.85l-.5677-.438C59.742,43.8212,60.38,43.8041,60.515,44.2331Z" transform="translate(0 0.1011)"/><path class="cls-2" d="M51.22,47.8487a.5213.5213,0,0,1-.4038-.0784c-.5211-.2332.06-.4479.0943-.7165C51.1,47.2341,51.0692,47.6056,51.22,47.8487Z" transform="translate(0 0.1011)"/><path class="cls-2" d="M53.3591,53.6432a6.8708,6.8708,0,0,1-.277,2.4075,5.6939,5.6939,0,0,1-.7553,1.5953,9.5592,9.5592,0,0,0,.6779-2.8243,11.21,11.21,0,0,1,.467-3.2408l.3406-.9691A13.1438,13.1438,0,0,0,53.3591,53.6432Z" transform="translate(0 0.1011)"/><path class="cls-2" d="M40.6107,64.5974c.2573-.3178.4166-.2358.56-.2878.18.18.1247.3911.4026.5228.4046.1977.9706-.203,1.2537-.3959a3.2579,3.2579,0,0,0,1.22.509c.4441,0,.6055-.4439,1.0092-.4439s.6459.5044.6459.5044.4053-.0373,2.5433-.3833C50.365,64.28,49.86,65.652,49.86,65.652a1.9134,1.9134,0,0,0,1.6769-.7687,5.8153,5.8153,0,0,0,1.4921-2.582c.1818-.9284.2221-4.4406.2221-4.4406a13.0765,13.0765,0,0,0-.6662,2.4828,6.1867,6.1867,0,0,1-1.0292,3.1488,2.7372,2.7372,0,0,1-.8479.545c.0666.0116-.2317-.5294-.4844-.7267a1.5069,1.5069,0,0,0-.6862-.3229,6.504,6.504,0,0,1-2.16,1.0293c-.5853-.04.04-1.0293.04-1.0293s-1.7763.666-2.6846.9284-1.08-.1968-1.08-.1968a3.6292,3.6292,0,0,1-1.9377.3634c-.5069-.2878-.7418-.56-.9689-.2574l-.5146.56c-.5-1.1507.8342-1.5732,1.2215-1.9755l-.85-.0943a.6879.6879,0,0,1-.4462-.7743,8.82,8.82,0,0,0-1.2873.309c.0722-.9488,1.2308-.5385,1.6868-1.15a.6141.6141,0,0,1,.803-.1046s-1.0549-.6713-.9763-.9637c.2724-1.0142,1.9814.5154,2.3823.7363-.1268-.1913-.2782-.282-.4295-.5244a1.7385,1.7385,0,0,0-3.2094.03c.0878.1523.6813-.3279.7418.0759.1212.2016.28.414.3313.4817a8.4917,8.4917,0,0,1-1.0731.381c-1.105.3936-1.1353,1.862-1.1353,1.862a12.8389,12.8389,0,0,0,1.4821-.353,1.5774,1.5774,0,0,0,.1528-.0556c.1666.5752.6965.1815.0758,1.2715-.3342.5786.2876,1.65.2876,1.65A1.4881,1.4881,0,0,0,40.6107,64.5974Z" transform="translate(0 0.1011)"/><path class="cls-2" d="M55.4466,56.3923a9.8871,9.8871,0,0,0-1.3626,3.8755c-.3278-1.4744.03-2.6644,1.1959-4.6476,1.6653-2.4523.79-4.8418.8932-5.5861C57.4751,54.515,55.9391,55.5554,55.4466,56.3923Z" transform="translate(0 0.1011)"/><path class="cls-2" d="M50.1025,58.9507a5.9538,5.9538,0,0,0,.5754,1.4835,3.6469,3.6469,0,0,1,.2422,2.6947,6.668,6.668,0,0,0-.8989-2.8792,3.682,3.682,0,0,1-.3727-2.2982,2.4778,2.4778,0,0,1,.5752-.999A3.0578,3.0578,0,0,0,50.1025,58.9507Z" transform="translate(0 0.1011)"/><path class="cls-2" d="M54.72,61.7513a9.2315,9.2315,0,0,1-1.3473,1.68c.3028-2.3767,1.7863-2.725,2.422-5.6316A8.5785,8.5785,0,0,1,54.72,61.7513Z" transform="translate(0 0.1011)"/><path class="cls-2" d="M64.6809,65.0667a4.7373,4.7373,0,0,1,.8631.2877,7.8332,7.8332,0,0,0-1.4319-.2867,1.719,1.719,0,0,1-.4664-.0134,8.995,8.995,0,0,0-3.1682-.0685c-1.3749.5775-2.8717,1.7022-3.1429,2.4766-.729,1.5363-2.544.2637-3.7552,1.7168-.318-.3415.1413-.8881.8224-1.3118.5081-.2608,1.769.1165,2.2487-.461.2859-.3028-.3784-1.0176-1.2109-.6728-1.0851.42-1.0935.9756-1.7189,1.3354a2.1017,2.1017,0,0,1,1.8-1.85c.5526-.1384,1.0758.1771,1.6906.0577a15.7141,15.7141,0,0,1,1.929-1.1038,4.6384,4.6384,0,0,1,1.6955-.4845A16.852,16.852,0,0,1,64.6809,65.0667Z" transform="translate(0 0.1011)"/><path class="cls-2" d="M51.7,48.09a2.4229,2.4229,0,0,1-.4148-.1091c-.3211-.1051-.6937-.2732-.7456-.2891-.1558-.0472-.2424-.0792-.2424-.0792a.2363.2363,0,0,1,.1687-.1075,2.7966,2.7966,0,0,1,.8478.252,2.4948,2.4948,0,0,1,.5231.3121Z" transform="translate(0 0.1011)"/><path class="cls-2" d="M60.967,41.8493a.6986.6986,0,0,0,.0606.4036c.1009.2624.1816.4643.1816.4643s-1.2918.04-1.191-.1413.2019-.3432.1415-.4644a3.5366,3.5366,0,0,0-.2221-.3431Z" transform="translate(0 0.1011)"/><path class="cls-2" d="M53.4381,45.4824c-.1462-.4222-.2623-.666-1.13-1.13a10.9756,10.9756,0,0,0-1.8771-.7266,3.3991,3.3991,0,0,0-.7267-.2222c.0607.0405,1.7359.9892,2.0588,1.13a4.1138,4.1138,0,0,1,.9488.4845c.1614.1613.2019.1613.2826.3834s0,.5046.1411.7872.2624.2826.2624.2826A1.4143,1.4143,0,0,0,53.4381,45.4824Z" transform="translate(0 0.1011)"/><path class="cls-2" d="M51.1334,42.4112a2.9772,2.9772,0,0,1,1.1022.16c.3665.1241.4954.6994.7481,1.0173,0,0-.8916-.9586-1.6076-.9283C51.2555,42.665,50.9008,42.4109,51.1334,42.4112Z" transform="translate(0 0.1011)"/><path class="cls-2" d="M50.69,42.9331a1.1054,1.1054,0,0,1,.6834.0933c.23.0795.3484.2775.5662.5735l-.2115-.101s.0452.0013-.2593-.1581a4.9742,4.9742,0,0,0-.5909-.2321C50.7414,43.0368,50.5634,42.9639,50.69,42.9331Z" transform="translate(0 0.1011)"/><path class="cls-2" d="M58.6457,41.8089a2.2173,2.2173,0,0,0-.6358,1.4229,15.5444,15.5444,0,0,0,.3029,3.0278,3.61,3.61,0,0,1-.3936,2.513,4.0939,4.0939,0,0,0-.5753,2.15,4.04,4.04,0,0,0,.7923,1.973,4.2847,4.2847,0,0,1-.4038-2.4423c.2422-1.1809.9386-1.8773,1.0295-2.7249a7.9992,7.9992,0,0,0-.2676-2.68A4.2443,4.2443,0,0,1,58.6457,41.8089Z" transform="translate(0 0.1011)"/><path class="cls-2" d="M57.5709,56.5487a4.6313,4.6313,0,0,0,.6661-1.9579c.02-.9285-.5853-1.8569-.767-2.8259a2.9922,2.9922,0,0,1-.02-1.8367,1.9973,1.9973,0,0,1,.8074-1.07,4.7916,4.7916,0,0,0-.5046,1.514,4.4355,4.4355,0,0,0,.2826,2.0385,5.3658,5.3658,0,0,1,.4844,2.9673,4.7679,4.7679,0,0,1-.8881,1.5542C57.3691,57.2754,57.2076,57.2956,57.5709,56.5487Z" transform="translate(0 0.1011)"/><path class="cls-2" d="M55.8065,63.6088c-.1361.1-.2988.2079-.4963.3275a1.4748,1.4748,0,0,1-.4239.1464s.2372-.2776.8074-1.0748c.9084-1.3524.8582-2.77,1.1709-4.1783a12.364,12.364,0,0,1,1.3926-2.7856,6.2487,6.2487,0,0,0,.111-2.3011c-.0605,2.9673-1.6348,2.8461-2.0285,5.1876a7.1817,7.1817,0,0,1-1.62,3.9865,8.9519,8.9519,0,0,1-3.6887,2.8359c1.655.3231,2.7854-.1412,4.2387-.2019a7.6752,7.6752,0,0,1,1.4532.1212h0c.3027.1412.4038-.222,1.2919-.6864a10.6194,10.6194,0,0,1,1.6967-.7121,5.3906,5.3906,0,0,1,1.987-.2667c-.1123-.0634,2.3491-.103,1.9932-.3381-.1382-.5525-1.0112-.0625-.7518-.3785-.8883.4238-1.0445.1111-2.1043.323a13.685,13.685,0,0,1-1.5139.0908,2.4132,2.4132,0,0,1-.7417-.1513.8228.8228,0,0,1-.5249-.8075,7.0463,7.0463,0,0,1,.04-.8881,4.9911,4.9911,0,0,0-.0758-1.0446A7.1377,7.1377,0,0,1,55.8065,63.6088Z" transform="translate(0 0.1011)"/><path class="cls-2" d="M75.5655,57.2856a6.3008,6.3008,0,0,0-2.634-1.8169,9.5814,9.5814,0,0,0-5.45.8479c-1.544.7872-2.15,1.9075-2.9671,3.3608a4.767,4.767,0,0,0-.5652,1.11c-.2634.79-.2826,1.1305.1716,1.3425.2343.1093,1.3322-.424,1.3322-.424-.2524-.3533-1.1607-.1716-1.1607-.1716a3.3917,3.3917,0,0,1,.8881-.8276,1.8223,1.8223,0,0,1,1.06-.121l-.5148-.3634a3.9853,3.9853,0,0,1,.4845-1.5139,3.8558,3.8558,0,0,1,3.0278-2.5735c1.9984-.5147,2.9975-.6358,4.2085-.0605A16.3,16.3,0,0,1,75.5655,57.2856Z" transform="translate(0 0.1011)"/><path class="cls-2" d="M74.3041,65.006a9.7957,9.7957,0,0,0-1.413-.7063c-.6769-.2674-1.5929-.5568-1.5929-.5568s2.1806-.38,3.3892-.6544a6.1424,6.1424,0,0,0,1.5746-.5046,1.9652,1.9652,0,0,0,.6661-.4845s.2726-.1209.6661-1.1706c.3145-.8388-.1244-2.3171.0605-2.5635.3633-.4845,2.7272.1335,3.7544,1.7359.7568,1.1809.0909,3.1185.0909,3.1185s.6761-.2624.7567-2.0285C82.351,59.132,80,57.9752,80,57.9752a3.8432,3.8432,0,0,1,2.3169,1.7829c.8882,1.4936.3432,3.33-.9082,4.9452s-4.0572,1.5744-5.1876,1.3322a3.5571,3.5571,0,0,1,.6864,1.1506c.2623,1.09-.101,1.7157-.5248,1.9578a14.2441,14.2441,0,0,1-3.048.3633c-.6459.02-.9082,0-1.857.0809a18.1274,18.1274,0,0,1-2.4221-.1211,5.659,5.659,0,0,0-1.0495.2219c-.9451.2205-.9285-.02-.9285-.02s.1614-.4644-1.05-.2827a10.6789,10.6789,0,0,1-1.4937.1211,2.7877,2.7877,0,0,1-1.8569.1817c-1.191-.2219-1.2919-.9688-1.2919-.9688a4.8094,4.8094,0,0,0,1.8772.4036,2.0617,2.0617,0,0,0,1.4534-.565s.2538.3862,1.2311.0605a2.6033,2.6033,0,0,0,.7872-.3835s1.9091.1182,2.0992.1413c.6662.0807,2.1194.2018,2.1194.2018s.1616,0,1.3726.0807c.8305.0554,1.4651.11,1.5139-.1008.0453-.1969-.6056-.4492-.6056-.4492s1.1507.1464,1.7156.1666a1.7842,1.7842,0,0,0,.9892-.2019.9018.9018,0,0,0,.02-1.07c-.3154-.3415-.2112-.3148-.6359-.5147-1.0293-.4844-.878-.6964-.878-.6964s-.29-.3879.3633-.0907c.333.1513-.0605-.424-.0605-.424A1.4622,1.4622,0,0,0,74.3041,65.006Zm4.38-5.6717A6.9706,6.9706,0,0,1,78.2,62.5032a12.1029,12.1029,0,0,1-2.14,2.24c1.655.6461,4.6424-.242,5.1268-1.8973a3.0688,3.0688,0,0,0-.9688-3.391A1.5974,1.5974,0,0,0,78.6842,59.3343Z" transform="translate(0 0.1011)"/><path class="cls-2" d="M69.7524,63.22a2.9285,2.9285,0,0,0,.5449.1818c.2681.0669,1.4534.5146,1.4534.5146a.964.964,0,0,0,.7435-.221c.3852-.4185-1.0415.0365-.9756-.4248.02-.1414-.2524-.323-.2524-.323a3.0452,3.0452,0,0,0-.757-.0606C69.8433,62.9473,69.7524,63.22,69.7524,63.22Z" transform="translate(0 0.1011)"/><path class="cls-2" d="M59.5036,63.7346a11.5124,11.5124,0,0,0,2.3465-.3635,15.9735,15.9735,0,0,0,1.9073-.7569,4.7228,4.7228,0,0,1,1.1756-.0657.4971.4971,0,0,0-.2773.3988.9669.9669,0,0,0,.0607.5652,1.6642,1.6642,0,0,1,.7467-.101.5491.5491,0,0,1,.4137.2624s-.3328.5248.111.6662.9992.1421,1.9178.454a14.6394,14.6394,0,0,0,2.18.545c.7064.1414,1.4835.3936,1.4835.3936s.111.1009-.1514.2423.6964.4239.6964.4239.0909.0606-.5753,0a8.2283,8.2283,0,0,1-1.3525-.1615,8.9518,8.9518,0,0,0-1.433-.2221,7.84,7.84,0,0,0-1.0092-.1008c-.3033-.0109-1.312-.0606-2.3616-.1818a10.4523,10.4523,0,0,1-2.4423-.5248,2.268,2.268,0,0,0-1.2919,0,.7119.7119,0,0,0-.8073-.06,1.5815,1.5815,0,0,0-.7771.7973,1.3138,1.3138,0,0,1,.555-.1514,1.2415,1.2415,0,0,1,.4643.0808.46.46,0,0,1-.101.545,3.1411,3.1411,0,0,1-.7266.4439s-.02-.1411-1.13-.1411-1.2312-.1617-1.6148.3836-.2017-.8883-.2017-.8883.2623-.4239,1.7559-1.13a7.1249,7.1249,0,0,1,3.25-.6461,10.662,10.662,0,0,1,2.0184.1617,15.496,15.496,0,0,1,1.6147.4844,5.302,5.302,0,0,0-1.5744-.8477,11.2646,11.2646,0,0,0-4.4406-.04c-1.1706.2623-1.6148.02-1.4936-.1614S59.5036,63.7346,59.5036,63.7346Z" transform="translate(0 0.1011)"/><path class="cls-2" d="M60.1142,65.9145a1.49,1.49,0,0,1,.8881-.0606.5812.5812,0,0,1,.3029.202,3.6543,3.6543,0,0,0,.343.3229s-1.2716.1008-1.0092.7063a.912.912,0,0,0,.9487.5046.8974.8974,0,0,0-.4642.545.5383.5383,0,0,0,.2623.5854l1.0295.4036-.6257.2221s-.424-.1817-.525.0807a2.88,2.88,0,0,0-.1411.53,1.8793,1.8793,0,0,1-.4845-.9942,1.3376,1.3376,0,0,1,.3633-.9889.4139.4139,0,0,0-.5836.0249,1.4421,1.4421,0,0,0-.3247.626,1.8454,1.8454,0,0,1-.5248-.974,1.1967,1.1967,0,0,1,.3633-.9687Z" transform="translate(0 0.1011)"/><path class="cls-2" d="M50.7989,52.1686a15.7731,15.7731,0,0,1-1.3321,3.9663,1.865,1.865,0,0,0-.6359-.7166c-.4192-.28-1.1505.1614-1.1505.1614a5.61,5.61,0,0,0-2.18-1.5037c-1.2373-.52-1.09.5552-1.09.5552s-1.0092-1.11-1.4131-1.5542c-.524-.5766-1.07-.3331-1.5542-.1817a7.0615,7.0615,0,0,1-1.9073-.06,1.08,1.08,0,0,1-.3029-2.1194,1.2961,1.2961,0,0,1-.6055-1.1505c.06-.7571.878-.7267.878-.7267S38.9,48.3538,38.93,47.96a1.6229,1.6229,0,0,1,1.12-1.09c.4541-.0606,2.0659.8158,2.8158.9991.6812.1664.3725,1.0457,1.5837,1.5392a7.0239,7.0239,0,0,0,2.534.4288c1.12,0,1.5139.4239,2.7853.7267s1.3928-.2119,1.3928-.2119S50.918,51.3782,50.7989,52.1686ZM40.66,47.2415a.9083.9083,0,0,0-1.0479.1736c-.1175.23-.114.7016.1565.7975.8663.1466.7377-.555,1.6054-.4547A2.4394,2.4394,0,0,1,40.66,47.2415Zm-.8914,3.615a1.0282,1.0282,0,0,0-.7386,1.0083h0c.1582.44.2643.5517.794.6217.2575-.06.4553-.1067.4694-.2876h0s-.1213-.111-.02-.2119a1.1724,1.1724,0,0,1,.9082-.2221,2.6678,2.6678,0,0,0-.8275-.545c-.5234-.4657-.174-.7137.06-.9083a1.6159,1.6159,0,0,1,.9859.0836l-.9052-1.0726c-.4087-.2573-1.0866-.3541-1.2843.2275-.0377.1508-.0635.5735.1137.6808C39.6267,50.5539,39.7882,50.6347,39.7681,50.8565ZM49.86,53.8641a2.7718,2.7718,0,0,1,.1011-1.4936,3.759,3.759,0,0,1,.8679-1.2111c-.6292.3594-.9171.0192-2.5218-.45a9.9605,9.9605,0,0,0-3.0795-.3723,7.2138,7.2138,0,0,1-2.3466-1.12c-.2269-.1969-.1824-.3767-.328-.8429a.76.76,0,0,0-.8477-.4035.5649.5649,0,0,0-.4036.2823s-.1664.0406-.4844.1012-.5047.4642-.5047.4642a1.1766,1.1766,0,0,1,.54-.101.8575.8575,0,0,1,.4573.2429c.02.7064-.0582.7266.2243,1.2109a6.9443,6.9443,0,0,0,1.1805,1.3519,13.5552,13.5552,0,0,0,2.0387,1.05c.1238.0551.7641.3636,1.3322.5651a3.0589,3.0589,0,0,1,1.1505.9084s.0057-.6959.9688-.3835A5.47,5.47,0,0,0,49.86,53.8641Z" transform="translate(0 0.1011)"/><path class="cls-2" d="M59.8671,46.31a4.4872,4.4872,0,0,1,.015,1.756c-.4088,1.0445-1.0027,1.269-1.1807,2.2657a7.5435,7.5435,0,0,0,.3631,3.23,3.4163,3.4163,0,0,1,.1818,2.074c-.2423.5652-.7065,1.1555-1.0294,1.8419a9.326,9.326,0,0,0-.53,1.5793A15.0816,15.0816,0,0,1,58.5,57.4773a10.7043,10.7043,0,0,0,1.2312-1.9581c.53-1.5138-.2624-2.4825-.4239-3.3506a3.2217,3.2217,0,0,1,.6662-2.7048,3.7528,3.7528,0,0,0,.8275-1.9376,9.5765,9.5765,0,0,0,.1413-1.5341Z" transform="translate(0 0.1011)"/><path class="cls-2" d="M35.111,77.4426s24.1776-.612,30.3554-1.1735c1.6614-.1508,4.6-.2422,6.4274-.4239s4.54-.3026,4.54-.3026a9.6205,9.6205,0,0,1-2.9076.5767c-2.35.207-6.7485.74-8.78.74-2.4793,0-10.7391.5967-13.2129.7177A121.5738,121.5738,0,0,1,35.111,77.4426Z" transform="translate(0 0.1011)"/><path class="cls-2" d="M49.2549,18.3593,43.0481,45.9921s-.03.3482.1514.4239a3.1718,3.1718,0,0,1,.5146.227,2.4111,2.4111,0,0,1,.4089.318,3.9712,3.9712,0,0,1-1.0144-.1968.8682.8682,0,0,1-.6055-.5L48.8108,18.44c.2018-1.1909.6255-3.6939.6863-4.32s-.0807-.4844-.3229-.1817a15.9031,15.9031,0,0,0-1.3728,3.8553S41.7461,43.1864,41.625,43.893a3.7919,3.7919,0,0,1-.3785,1.5995c-.3446.58-.656.6913-1.06.6509-.302-.03-.7216-.0454-.8025.1969-.0554.1667.202.2776.545.3179a3.1985,3.1985,0,0,0,1.1658-.0757c.439-.1212.6207-.1817.6207-.1817a1.4342,1.4342,0,0,0,.227.3482,2.36,2.36,0,0,0,.6511.4694,3.4968,3.4968,0,0,0,1.2109.2473.4592.4592,0,0,1,.5248.3632c.0607.1616.37.3363.7671.1414a.563.563,0,0,0,.04-.8579c-.3087-.2726-.7467.03-.8275-.111s.3129-.5552.9033-.3432a.9342.9342,0,0,1,.5751,1.2868c-.2269.6812-.9738.6711-1.3774.6107s-.6258-.3635-.7672-.4038a3.0071,3.0071,0,0,0-.4439-.06s-2.6644-1.07-2.8865-1.11a4.0163,4.0163,0,0,0-.989.1008c-.2019.04-.3431.2625-.8478.1818-.279-.0448-1.1854-.3948-.9084-1.2263a1.017,1.017,0,0,1,1.2566-.7569c.3261.0545.3482.3633.6358.4088.375.0592.6509.02.7722-.3633s6.6205-26.2806,6.6205-26.2806c.9284-3.068,1.6349-4.9452,2.2608-5.7324s.9093-1.4707.8071.2826A28.2787,28.2787,0,0,1,49.2549,18.3593ZM38.5671,46.5511a.3325.3325,0,1,0-.3533-.3319A.3432.3432,0,0,0,38.5671,46.5511Z" transform="translate(0 0.1011)"/><path class="cls-2" d="M52.5247,60.8885a18.6021,18.6021,0,0,1,.9084-4.33,20.4428,20.4428,0,0,0,1.15-3.058,28.6264,28.6264,0,0,0-.0908-3.1488c.06-.6662.1213-1.3021.1213-1.3021h.4238a10.5841,10.5841,0,0,0-.0606,2.15,6.5,6.5,0,0,1,.0908,2.634c-.3633,1.302-1.0737,2.1786-1.3523,3.26a18.6736,18.6736,0,0,0-.5853,4.2589Z" transform="translate(0 0.1011)"/><path class="cls-2" d="M37.3105,46.3775a.386.386,0,1,0-.4068-.3854A.3965.3965,0,0,0,37.3105,46.3775Z" transform="translate(0 0.1011)"/><path class="cls-2" d="M40.2625,55.3468a.5143.5143,0,1,0-.5351-.5137A.5249.5249,0,0,0,40.2625,55.3468Z" transform="translate(0 0.1011)"/><path class="cls-2" d="M39.657,52.6834s.1514-.106-.0151.0757a1.1656,1.1656,0,0,0-.3986.9435,1.1892,1.1892,0,0,0,1.0646.9638,1.125,1.125,0,0,0,1.3475-.8173.9135.9135,0,0,0-.2272-.9993c-.1664-.1664-.8477.0607-.8477.0607a.8307.8307,0,0,1,.3936.7719.4632.4632,0,0,1-.56.3936.4768.4768,0,0,1-.439-.59.99.99,0,0,1,.5449-.5752.3182.3182,0,0,1,.1212-.2726C40.7773,52.547,39.657,52.6834,39.657,52.6834Z" transform="translate(0 0.1011)"/><path class="cls-2" d="M46.1117,48.492a.5622.5622,0,1,0-.5476-.5622A.5551.5551,0,0,0,46.1117,48.492Z" transform="translate(0 0.1011)"/><path class="cls-2" d="M43.4183,65.1076a15.0828,15.0828,0,0,0,1.3,2.2552,21.3133,21.3133,0,0,1,1.4937,2.18c.4038.6863,1.62,2.5712,2.5889,3.863s2.6914,3.23,2.6914,3.23-2.2526-3.54-2.9388-4.4685S47.2212,70.1482,46.5752,69.3,43.8221,65.4709,43.4183,65.1076Z" transform="translate(0 0.1011)"/><path class="cls-2" d="M49.1489,65.0415s2.6644,3.23,3.9966,4.8039,2.0185,2.826,2.6643,3.5929,2.5281,2.952,2.5281,2.952a14.1462,14.1462,0,0,0-2.0436-3.2751c-1.034-1.1076-1.8974-2.5028-2.7453-3.512s-2.1395-2.7451-2.7046-3.23S49.4315,65.0011,49.1489,65.0415Z" transform="translate(0 0.1011)"/><path class="cls-2" d="M57.6315,67.61s3.3153,4.1227,3.88,4.688,2.3414,3.0681,2.3414,3.0681,1.9328,1.9326.6611.116c-.3089-.4411-1.9578-2.5432-2.6846-3.4718s-1.5744-1.8973-2.2607-2.7048A15.6776,15.6776,0,0,0,57.6315,67.61Z" transform="translate(0 0.1011)"/><path class="cls-2" d="M65.7709,69.477a6.8869,6.8869,0,0,0,1.09,1.5342c.5653.5248,1.6553,1.7761,2.0186,2.22s2.5059,2.2825,2.5059,2.2825a18.4429,18.4429,0,0,0-1.4563-1.798c-.6056-.6056-1.2513-1.2516-1.7358-1.8167A34.1215,34.1215,0,0,0,65.7709,69.477Z" transform="translate(0 0.1011)"/><path class="cls-2" d="M71.6714,69.2724s1.6455,1.75,2.4551,2.6836a31.8391,31.8391,0,0,0,2.699,2.5055,5.0977,5.0977,0,0,0-.9947-1.4506,29.4615,29.4615,0,0,1-2.2075-2.3659c-.4708-.5849-1.18-1.286-1.18-1.286Z" transform="translate(0 0.1011)"/><path class="cls-2" d="M44.9229,73.4535s2.5853-.2725,3.7538-.3331,5.2584-.1211,6.7774-.1211,7.5952-.4845,9.6985-.5451,5.55-.4844,6.3685-.4844,7.9406-.1564,7.9406-.1564a15.911,15.911,0,0,1-3.3108.4709c-.47.0286-5.0388.4123-5.74.4123s-2.7607.0452-2.7607.0452a26.9652,26.9652,0,0,1-3.0235.1363,19.7383,19.7383,0,0,0-2.96.2322s-.9544.01-2.1811.1313-3.4472,0-3.6809.06a26.6306,26.6306,0,0,1-3.4423.2674,23.0581,23.0581,0,0,1-3.0235-.0857c-.1753-.0608-1.3632.0605-2.0643.0605S44.9229,73.4535,44.9229,73.4535Z" transform="translate(0 0.1011)"/><path class="cls-2" d="M59.872,68.9018H55.9158c-.6862,0-3.058.1916-3.058.1916s-2.1092-.07-3.1991-.07-5.9143.2824-5.9143.2824a49.4685,49.4685,0,0,0,5.9342.0606c1.0615-.0295,3.2195,0,3.6637,0s2.4483-.0228,3.058-.0606C59.8216,69.0934,59.872,68.9018,59.872,68.9018Z" transform="translate(0 0.1011)"/><path class="cls-2" d="M52.0555,65.8387s-3.3154.0454-4.6477.106-3.9359.0606-3.9359.0606a11.65,11.65,0,0,1,2.0588-.2575c1.2717-.0605,2.421-.0172,3.1488-.0605A26.4869,26.4869,0,0,1,52.0555,65.8387Z" transform="translate(0 0.1011)"/><path class="cls-2" d="M30.758,54.3838a.199.199,0,0,0-.1689.0178l-.0607.0075a.1074.1074,0,0,0-.0581.0656l-.01.043a.4857.4857,0,0,0-.0253.5751c.1513.1691.4541.1541.4441.4745l-.0075.0377.0252-.121-.02.04c-.0277.0553-.053.111-.0807.1665l-.0251.0958a.2151.2151,0,0,0,.0151.1842l.0126.02a1.1821,1.1821,0,0,0,.7443.5525,1.41,1.41,0,0,0-.217.482l-.0075.0883a.247.247,0,0,0,.04.1462l.0328.0481c.0933.2094.328.29.502.4264.05.04.0152.1186-.0428.2193a.58.58,0,0,0,.2043.7395c.1463.1135.3382.1615.4164.3255.1084.2347-.0884.4667-.0607.7266a.7.7,0,0,0,.6738.6433c.0252,0,.0706.038.0656.0531-.05.1993-.2044.3582-.1767.5827.04.3508.3508.4592.5829.6358-.0454.0884.05.1844-.0707.2675a.7493.7493,0,0,0,.6585.8932c.0405.0026.0959.0733.1817.0781a.0734.0734,0,1,0,.0656-.1312c-.1665-.2043-.4087-.3631-.439-.6484a.7533.7533,0,0,0-.3986-1.0746.078.078,0,0,1-.03-.0784.9373.9373,0,0,0,.0707-.825.7509.7509,0,0,0-.5678-.3356c-.0175-.0025-.0328-.0781-.0277-.1236a2.0072,2.0072,0,0,0,.0529-.7267,1.0462,1.0462,0,0,0-.6409-.6785c-.0175-.0078-.05.0125-.0782.0225a.8006.8006,0,0,0-.4439-1.1959l-.1011-.1236.043.1463.0151-.0909c.1136-.28.2272-.6281-.0705-.8679-.1642-.1337-.3836-.1337-.5425-.2649l-.0758-.1464.0253.139.03-.0885L31.21,55.82l.068-.1286a.22.22,0,0,0,.0253-.1136l-.0076-.0984a.72.72,0,0,0-.613-.59c-.0909-.0175-.0807-.1514-.0605-.2395l.0352-.1238-.0352.05.0781-.04c-.0732-.1059.0405-.0731.0733-.1009a.0286.0286,0,0,0,.0175-.0327.029.029,0,0,0-.0328-.0178Z" transform="translate(0 0.1011)"/><path class="cls-2" d="M33.4629,53.8389c-.0581-.02-.0493.0464-.1025.0769l-.06.0074a.1063.1063,0,0,0-.058.0657l-.01.0429a.4858.4858,0,0,0-.0253.5752c.1514.169.3875.0949.3773.4154l-.0075.0376.0252-.121-.02.04c-.0277.0554-.0529.111-.0806.1665l-.0253.0958a.2151.2151,0,0,0,.0151.1842l.0126.02a1.1832,1.1832,0,0,0,.7443.5526,1.4109,1.4109,0,0,0-.217.4819l-.0075.0883a.2486.2486,0,0,0,.04.1465l.0328.0478c.0933.2094.328.29.5022.4264.05.04.015.1186-.043.22a.58.58,0,0,0,.2043.7393c.1465.1135.3382.1615.4164.3255.1084.2345-.0882.4667-.0606.7266a.7.7,0,0,0,.6737.6433c.0252,0,.0706.0379.0656.0531-.05.1993-.2044.3582-.1767.5828.04.3507.3508.4591.5829.6357-.0454.0884.05.1843-.0705.2676a.749.749,0,0,0,.6584.8931c.04.0026.096.0731.1816.0783a.0734.0734,0,1,0,.0656-.1313c-.1665-.2043-.4087-.3632-.4389-.6484A.7537.7537,0,0,0,36.2584,60.5a.0778.0778,0,0,1-.03-.0782.9371.9371,0,0,0,.0707-.8249.75.75,0,0,0-.5676-.3356c-.0177-.0026-.033-.0782-.0279-.1237a2.0069,2.0069,0,0,0,.0529-.7266,1.0464,1.0464,0,0,0-.6408-.6786c-.0176-.0078-.05.0125-.0781.0226a.8005.8005,0,0,0-.4441-1.1959l-.1009-.1237.0428.1463.0153-.0907c.1134-.28.2269-.6283-.0707-.868-.164-.1338-.3836-.1338-.5425-.2649l-.0756-.1465.0251.139.03-.0885-.0025.0126.0681-.1286a.2222.2222,0,0,0,.0253-.1136L34,54.934a.5914.5914,0,0,0-.5463-.5313c-.0909-.0176-.0809-.1514-.0608-.24l.0355-.1236-.0355.05.0783-.04c-.0732-.106.0405-.0731.0733-.1009a.029.029,0,0,0,.0175-.0327.2926.2926,0,0,0-.0994-.0769Z" transform="translate(0 0.1011)"/><path class="cls-2" d="M35.9473,53.5239a.6966.6966,0,0,0,.3078,1.0873c.174.1919-.027.2521-.0875.4488l-.01.048a.2168.2168,0,0,0,.03.111l.01.02a.73.73,0,0,0,.4566.4995l.0782.0049-.0656-.0554-.0051-.0126c.1389.0783.3154.2271.24.3683a.763.763,0,0,0,.3708,1.0572l.0405.02L37.2,57.018l.1035.116a.1559.1559,0,0,1,.1134.144.533.533,0,0,1-.0755.2749c-.1792.401.1866.767.5272.9941a.1573.1573,0,0,1,.0682.1614c-.0631.3559-.2346.75.106,1.0017a1.3559,1.3559,0,0,1,.4743.5956.12.12,0,0,0,.24-.0127.6875.6875,0,0,0-.111-.7394,1.2728,1.2728,0,0,0-.3936-.2673.2383.2383,0,0,1-.0529-.2322.9338.9338,0,0,0-.0985-.9436c-.1262-.1388-.32-.1918-.4215-.3582-.1613-.265.0581-.5425.03-.8276a.3481.3481,0,0,0-.0858-.1994l.0328.0277a.2733.2733,0,0,0-.111-.1033l-.1261-.0682a.5736.5736,0,0,1-.3786-.3708c-.0656-.26.1565-.5122.0227-.7746l-.01-.0656a.2424.2424,0,0,0-.1337-.0833l-.0682-.0354c.0177-.0025.0328-.0076.05-.01-.0682-.0605-.1791-.0453-.2271-.1362l-.1084-.1084.03.1109v-.0908a.0522.0522,0,0,1-.0605-.0656.6.6,0,0,0-.3061-.8172c-.1766-.0983-.1287-.3381-.0554-.51a.1243.1243,0,1,0-.2271-.1009Z" transform="translate(0 0.1011)"/><path class="cls-2" d="M28.2275,54.8506a.6966.6966,0,0,0,.3078,1.0875c.174.1918-.0077.4087-.0682.6055l-.01.048a.2169.2169,0,0,0,.03.1111l.01.02a.73.73,0,0,0,.4568.5l.078.005-.0656-.0557-.0051-.0126c.1389.0783.3156.2273.24.3686a.7628.7628,0,0,0,.371,1.057l.04.02-.1135-.1034.1034.116a.1561.1561,0,0,1,.1136.1437.5357.5357,0,0,1-.0757.2751c-.1792.4012.1866.767.5272.994a.1571.1571,0,0,1,.0682.1614c-.0631.356-.2347.75.106,1.0018a1.3551,1.3551,0,0,1,.4743.5955.12.12,0,0,0,.24-.0126.6875.6875,0,0,0-.111-.7394,1.2765,1.2765,0,0,0-.3936-.2672c-.0454-.02-.0809-.1565-.053-.2324A.9335.9335,0,0,0,30.4,59.594c-.1261-.1387-.32-.1916-.4215-.3582-.1613-.265.0581-.5424.03-.8274a.3476.3476,0,0,0-.0858-.2l.0328.0279a.2734.2734,0,0,0-.111-.1036l-.1261-.0681a.5738.5738,0,0,1-.3786-.3709c-.0655-.26.1565-.5121.0229-.7745l-.01-.0657a.2422.2422,0,0,0-.1337-.0832l-.0682-.0352c.0177-.0028.0328-.0076.05-.01-.0681-.06-.1791-.0454-.2271-.1363l-.1084-.1084.03.111v-.0908a.0523.0523,0,0,1-.0607-.0656.7945.7945,0,0,0-.3253-.974c-.1767-.0984-.1288-.338-.0556-.51a.1242.1242,0,1,0-.227-.101Z" transform="translate(0 0.1011)"/><path class="cls-2" d="M30.8615,61.658a.5491.5491,0,0,0,.2548.6181c.0934.06.1211.212.1439.3407-.02-.03-.043-.0631-.0632-.0934-.0126.05-.0277.1035-.04.1538l-.0328.0908a.22.22,0,0,0-.0025.1212l.0227.0733a1.7052,1.7052,0,0,0,.5879.6256.2181.2181,0,0,0,.2877-.328c-.1288-.1186-.2651-.23-.3962-.3431l-.0732-.1414-.0051.1312.0228-.0681a.6158.6158,0,0,0-.4113-.8729c-.0353-.0051-.0909.0632-.1565-.0454a.9874.9874,0,0,1-.0882-.2676.0254.0254,0,0,0-.05.0052Z" transform="translate(0 0.1011)"/><path class="cls-2" d="M32.7588,65.16l-.0907-.0229.01-.0529a.1042.1042,0,0,0-.0656.0227l-.068.0707c-.3.3456-.0027.7392.1487,1.0723.01.0253-.06.1059-.1538.1664a.493.493,0,0,0-.05.7495c.1513.1412.386.28.2978.4919-.1061.2524-.3936.419-.3761.7266a1.27,1.27,0,0,0,.2726.5426c.1716.285-.1866.5146-.26.8023a.5527.5527,0,0,0,.2775.6258c.1363.3052-.2573.4794-.32.7544l-.02.0328a.2354.2354,0,0,0-.0279.1235l.01.0909a.5321.5321,0,0,0,.1161.2473c.0858.1236.27.1968.2522.3457a.8347.8347,0,0,1-.4592.5953.2087.2087,0,0,0-.06.29.2109.2109,0,0,0,.2926.058,1.1018,1.1018,0,0,0,.6888-.9436.7724.7724,0,0,0-.3431-.6132l-.0428-.1035-.0279.1263.0481-.1212c.1285-.25.3455-.4668.3406-.762A1.2355,1.2355,0,0,0,32.84,69.8a1.4677,1.4677,0,0,0,.29-.9259c-.0177-.2725-.3205-.4086-.318-.661.0026-.1767.1994-.2978.2524-.4819.1059-.3635-.1412-.6687-.1944-1.0068a.68.68,0,0,0,.1288-.6307c-.1011-.2523-.3912-.4289-.285-.752l.0327-.0731-.0682.0227.0277-.0075c.02-.01.04-.0228.0607-.0327a.0866.0866,0,0,0-.1187-.1262Z" transform="translate(0 0.1011)"/><path class="cls-2" d="M35.3578,64.9632a.2724.2724,0,0,0-.2726.0883c-.3382.3659-.1616.83.1085,1.2009a.19.19,0,0,1-.0126.1717,1.0959,1.0959,0,0,0-.2449,1.07,3.3091,3.3091,0,0,0,.3407.4995.1475.1475,0,0,1-.0328.1715.8618.8618,0,0,0-.0151,1.32.3754.3754,0,0,1-.1363.4845l-.053.0629a.2375.2375,0,0,0-.0505.1111l-.0124.0859a1.2708,1.2708,0,0,0,.31.898.17.17,0,0,1-.0051.1766c-.2726.26-.5425.5628-.4415.9564a.2405.2405,0,0,0,.2548.2271.2429.2429,0,0,0,.227-.2574c-.0024-.0757-.0352-.1666-.01-.2195.116-.2524.3961-.3961.449-.6963a.9894.9894,0,0,0-.2927-.77.3914.3914,0,0,1-.03-.2421l.0076-.086-.05.111.0378-.0554a.7717.7717,0,0,0,.25-.86c-.058-.2071-.25-.3205-.3052-.52-.0857-.3231.1361-.5678.22-.8681a.3236.3236,0,0,0-.0051-.1764,1.6967,1.6967,0,0,1-.1539-.7445c.0379-.24.23-.4213.2675-.6737.053-.3708-.2094-.6079-.4011-.8983a.4418.4418,0,0,1,.0731-.5221.0249.0249,0,0,0-.02-.0455Z" transform="translate(0 0.1011)"/><path class="cls-2" d="M37.8555,64.5974a.3157.3157,0,0,0-.2826.1236c-.371.4995-.0277,1.0749.2145,1.5314-.0707.0734-.0807.1869-.1463.25a1.0807,1.0807,0,0,0,.1235,1.4383l.0177-.0228v-.0025l.0076.0176c.048.0631.1059.1237.0707.2247-.0934.28-.3356.4869-.3431.79a1.19,1.19,0,0,0,.2118.5955c.0656.1236.1691.2976.0681.3936-.4641.4339-.1387,1.0749.1439,1.4759a.9851.9851,0,0,1-.2625.7242.1517.1517,0,0,0-.0352.2145.1536.1536,0,0,0,.2145.0378.7492.7492,0,0,0,.3885-.2449,1.0038,1.0038,0,0,0-.0556-1.2867c-.2622-.2925.01-.59.0379-.9032a1.2892,1.2892,0,0,0-.3229-.815.4215.4215,0,0,1-.0454-.4087c.121-.3.3658-.5853.29-.9337l.0177-.02a.2129.2129,0,0,0-.1236-.1238l.0076-.0378c-.0405-.1993-.1843-.4087-.0657-.6106l-.0756.068a.9491.9491,0,0,0,.4036-1.1025c-.1767-.4264-.7418-.82-.4289-1.322a.0294.0294,0,0,0-.03-.0505Z" transform="translate(0 0.1011)"/><path class="cls-2" d="M40.7924,65.3669c-.2675-.0125-.3608.29-.381.5046a.922.922,0,0,0,.2423.6307.2172.2172,0,0,1,.0428.1793c-.0705.24-.3154.3987-.3407.6534a1.1256,1.1256,0,0,0,.4592.8781l.0557.0378-.1009-.1261.0075.02c.0227.31-.32.4793-.4088.7619-.1085.3481.1564.6157.3355.8983a.09.09,0,0,1,.0077.0833,1.0808,1.0808,0,0,0-.3331.7569c.03.3531.3229.56.487.8452a1,1,0,0,1-.4643.8982.0718.0718,0,0,0,.0808.1186,2.1534,2.1534,0,0,0,.6408-.4366.8.8,0,0,0,.1414-.9133c-.1162-.1917-.2775-.3229-.3963-.51a.193.193,0,0,1-.01-.1841,1.5022,1.5022,0,0,0,.2927-.593c.0429-.2774-.1892-.4465-.3281-.6686-.0377-.0581-.0655-.1211-.0251-.1766.23-.318.5222-.6459.4189-1.0472l.015-.0175a.2368.2368,0,0,0-.101-.1262l-.0126-.03c-.0832-.111-.053-.2852-.2547-.3306.2145-.2624.4945-.55.4213-.9284a1.2932,1.2932,0,0,0-.4239-.6585c-.1312-.1338-.0555-.3129-.0176-.4745a.0339.0339,0,0,0-.05-.0453Z" transform="translate(0 0.1011)"/><path class="cls-2" d="M29.094,73.6446s2.0117-.1438,3.1451-.282c1.2413-.1514,3.6571-.0107,5.7967-.0914,2.3235-.0877,5.3473-.364,5.3473-.364a17.0125,17.0125,0,0,0,.0183-3.7229,30.7938,30.7938,0,0,1-.0809-4.6021,22.5789,22.5789,0,0,1,.5653,3.068c.0807,1.1709.2017,2.7049.2826,3.4315s.04.6862.1613,1.4533a15.9133,15.9133,0,0,1,.1414,1.7849,7.3985,7.3985,0,0,1-2.2751.4108,24.6224,24.6224,0,0,0-4.3658-.0158,12.0635,12.0635,0,0,1-3.35.2422,9.0858,9.0858,0,0,0-3.1894.1616c-.2422.2017-.8072-.5652-.8072-.5652a21.6866,21.6866,0,0,1,3.4314-.2422,42.7211,42.7211,0,0,0,4.839-.2327c.8074-.0807,2.218.1767,2.9119.1115,1.6633-.1564,1.8973-.5652,1.8973-.5652s-1.3241-.0757-3.06.0051-3.1532.18-4.4855.18-3.409.009-4.2164.09-1.9736.2242-1.9736.2242Z" transform="translate(0 0.1011)"/><path class="cls-2" d="M35.3578,74.8764s.1252.5971.2345,1.1748a4.75,4.75,0,0,0,1.6482,2.2951l.757.2422-.212-.545a5.4372,5.4372,0,0,1-1.5022-1.9265,4.9577,4.9577,0,0,1-.0173-1.2406Z" transform="translate(0 0.1011)"/><path class="cls-2" d="M42.0337,74.5132a13.5725,13.5725,0,0,0,.3051,1.5709,4.4772,4.4772,0,0,0,1.6456,2.0075,1.8838,1.8838,0,0,0,.68.5547l.4405-.04-.1758-.5021a9.2289,9.2289,0,0,1-1.7673-1.8557c-.6055-1.3926-.1279-1.3917-.3263-1.7665C42.7082,74.2422,42.0337,74.5132,42.0337,74.5132Z" transform="translate(0 0.1011)"/><path class="cls-2" d="M24.8008,54.2287l.091.2611s2.14-.4844,3.4516-.7063,1.8368-.1818,3.9765-.6259,4.8847-.6861,4.8847-.6861,1.09,2.16,1.5542,3.2093,1.8166,3.5121,1.8166,3.5121a9.3661,9.3661,0,0,0-.6661-2.402,26.5194,26.5194,0,0,1-1.4936-2.9268c-.2826-.6863-.8754-2.3032-.8754-2.3032s-1.5958.4318-1.7083.4463a.1223.1223,0,0,1-.1413-.06,5.1686,5.1686,0,0,0-.0807-1.2515c-.1211-.3836-1.6551-2.8057-1.6551-2.8057L33.37,47.506l.2422.8678a12.191,12.191,0,0,1,1.1706,1.9783,7.0481,7.0481,0,0,1,.2221,1.7761l-5.9747,1.09a16.0065,16.0065,0,0,0-1.0049-2.4327c-.18-.328-1.3164-.8572-1.4374-1.0187s-.3229-.4441-.3229-.4441l-.3231-.2221s-.2291.687,0,.9892c.4441.5853,1.05.5248,1.4332,1.09a5.4193,5.4193,0,0,1,.8275,2.1395l-3.0076.6661Z" transform="translate(0 0.1011)"/><path class="cls-2" d="M37.0221,53.1448l.1614-.2826s-1.2413.1514-1.7559.1816-2.5013.4043-3.5307.6465-2.9066.3331-4.0269.545-3.1337.8023-3.1337.8023a37.0931,37.0931,0,0,1,1.69,3.8525c.3936,1.2716.5767,3.349,1.2413,4.5719a3.1764,3.1764,0,0,0,2.1194,1.6047,9.1417,9.1417,0,0,1,2.77-.6812c1.5441-.1212,2.9974-.6966,4.42-.8176a10.1421,10.1421,0,0,0,2.5737-.5754,2.0122,2.0122,0,0,0-1.62-.3481c-.9385.2121-3.291.8838-3.83.984-.651.1212-1.9831.2575-2.5886.4391-.4587.1377-1.4687.3331-1.4687.3331s-1.12-.2272-1.771-1.9226c-.5987-1.5591-.6207-2.1649-1.3625-3.7846-.57-1.2449-1.4776-3.4438-1.4776-3.4438s1.1959-.2876,1.9831-.4693.9386-.03,3.0883-.4843,4.1765-.8282,5.1656-.97C36.04,53.2736,36.9718,53.1646,37.0221,53.1448Z" transform="translate(0 0.1011)"/><path class="cls-2" d="M30.039,64.9052a16.38,16.38,0,0,0-.1212,2.14c.0809,1.8167.8478,2.947.6461,4.1582a9.4733,9.4733,0,0,1-.868,2.4624l-.4239-.2423a8.2671,8.2671,0,0,0,.5248-2.5835,36.54,36.54,0,0,1-.4844-3.6736,17.0037,17.0037,0,0,1,.2825-2.18Z" transform="translate(0 0.1011)"/><path class="cls-2" d="M59.4015,36.2844a.9559.9559,0,0,0,.4686-.8189.9713.9713,0,0,0-1.9425,0,.9445.9445,0,0,0,.0425.2665,1.189,1.189,0,0,0-.9461-.0487.9853.9853,0,0,0-.7713,1c0,.612.2922,1.0707.9105,1.0707.0631,0-.06.01,0,0-.0386.0472.0107-.0349,0,0a.744.744,0,0,1-.9275.4573.8844.8844,0,0,1-.6811-.9617s-.732.53-1.23.2272c-.5963-.3624-.2661-.5965-.2661-.5965a1.0891,1.0891,0,0,0,1.102-1.4,1.1982,1.1982,0,0,0-1.5722-.6606s.1079-.71-1.0363-.8581a1.177,1.177,0,0,0-1.127,1.48c.12.2568.2019.32.9419,1.581a10.2489,10.2489,0,0,1,.9591,1.9984,1.0124,1.0124,0,0,1,.0314.25.771.771,0,0,0,.04.2624,18.2138,18.2138,0,0,1,3.5124.9588,28.6606,28.6606,0,0,1,4.0973,1.7661s.02-.0807.04-.2221c.0047-.032.01-.0652.0163-.0973a3.1435,3.1435,0,0,1,1.054-1.0033c1.6127-1.02,2.2607-1.2641,3.071-1.72.5358-.3011.3361-1.2941-.1852-1.5475-1.0234-.4973-1.3654.0968-1.3654.0968a1.2865,1.2865,0,0,0-1.7185-.1448.9418.9418,0,0,0,.2149,1.6206s.0165.2169-.6444.3762c-.6055.1458-.7876-.7552-.7876-.7552a1.4213,1.4213,0,0,1-1.4209.291.7531.7531,0,0,1-.4668-.9619c.195.3255.4181.278.7627.255a.9669.9669,0,0,0,.9563-1.0144,1.1975,1.1975,0,0,0-.7972-1.089m0,0a1.1327,1.1327,0,0,0-.3354-.0587m-6.1806,1.26c-.2212-.5647-1.07-1.8125-1.2239-2.2038-.1325-.3357.3092-.8119.74-.6728.3945.1273.467.9053.467.9053a.8513.8513,0,0,1,1.0846-.2208.5244.5244,0,0,1,.1112.8757c-.2726.2929-.9435.083-.9435.083s-.5045.78.61,1.5526c.8242.572,1.2951-.0166,1.2951-.0166a.8894.8894,0,0,0,.6729.74c.2952.08.9975.51,1.6147-.6559.14-.2639.2045-.7236.1137-.7418a2.0354,2.0354,0,0,0-.3446-.0057.5242.5242,0,0,1-.0392-1.0474.546.546,0,0,1,.3783.15l.0029-.0176s.31.41.703-.0372c.1526-.174.0042-.6077.0042-.6077l.0011-.0012a.4154.4154,0,0,1-.032-.1568.4636.4636,0,0,1,.9257,0,.4383.4383,0,0,1-.3045.41.8564.8564,0,0,0-.2551.4262c-.0784.4591.6015.4872.6015.4872l-.02.0319c.0092,0,.0178-.0026.0271-.0026a.5179.5179,0,0,1,.5317.5027.5022.5022,0,0,1-.5317.5029c-.36-.0326-.56-.3971-.7592-.3606,0,0-1.0909,1.3956.34,2.025a1.4947,1.4947,0,0,0,1.3918-.02,1.3386,1.3386,0,0,0,1.0411.6416,1.84,1.84,0,0,0,1.5367-1.0707s-.695-.12-.7765-.4775a.5247.5247,0,0,1,.5616-.6656.95.95,0,0,1,.9326.6748.9188.9188,0,0,1,.6018-.4643c.4118-.0661.7318.5174.4375.7232-.2635.1844-1.6455.9546-2.3368,1.4152a11.491,11.491,0,0,0-1.2628.8837c-.1918.1634-.3284.374-.4333.4442l-.4247-.1618s.02,0-.7668-.323-.8882-.3834-.8882-.3834-.417-.2026-1.3252-.5255-1.6126-.56-1.6126-.56.1118.096-.6955-.1665-.7467-.2422-.7467-.2422l-.4487-.11-.0358-.072S53.5107,38.2845,53.2209,37.5446Z" transform="translate(0 0.1011)"/><path class="cls-2" d="M54.5423,40.9981a3.83,3.83,0,0,1,.8973.6952,4.2818,4.2818,0,0,1,.5158.7625,2.0429,2.0429,0,0,0-1.3569.0056c-.7012.2357-.9756.0169-.9981-.2521a.7949.7949,0,0,1,.2017-.516.27.27,0,0,0,.1908.4317.734.734,0,0,0,.5888-.0419s-.4209-.0522-.4542-.2861a.408.408,0,0,1,.2859-.4372s-.164-.1142-.6559.0252c-.3758.1064-.387.4317-.4542.5215s-.0974.0326-.0674-.2468C53.2865,41.1915,53.152,40.6279,54.5423,40.9981Z" transform="translate(0 0.1011)"/><path class="cls-2" d="M58.0976,33.1487a.6381.6381,0,1,0-.6306-.638A.6343.6343,0,0,0,58.0976,33.1487Z" transform="translate(0 0.1011)"/><path class="cls-2" d="M53.6472,33.4845a.9626.9626,0,1,1,.9625.9474A.9549.9549,0,0,1,53.6472,33.4845Zm.9625.4115a.4129.4129,0,1,0-.4459-.4115A.43.43,0,0,0,54.61,33.896Z" transform="translate(0 0.1011)"/><path class="cls-2" d="M55.6967,32.8066a.7955.7955,0,1,1,.7953.7744A.785.785,0,0,1,55.6967,32.8066Zm.792.315a.3087.3087,0,1,0-.3244-.3083A.3166.3166,0,0,0,56.4887,33.1216Z" transform="translate(0 0.1011)"/><path class="cls-2" d="M59.3128,29.2926a1.38,1.38,0,0,0-.2693.4485,2.3148,2.3148,0,0,0-.1121.6953s1.1588-.181,1.2112.09a.5368.5368,0,0,1-.1347.4559l.6916.2387s-.0412-.4705.1158-.5154.9645.6729.9645.6729.2018-.0449.4035-.471a.6826.6826,0,0,0-.0448-.6728s-1.1436.2243-1.1436-.09.8071-1.0767.8071-1.0767a1.2243,1.2243,0,0,0-.6181-.4311c-.4921-.1347-.5928-.04-.5928-.04s-.0449,1.3233-.2244,1.3457S59.3128,29.2926,59.3128,29.2926Z" transform="translate(0 0.1011)"/><path class="cls-2" d="M53.9906,34.7806a7.359,7.359,0,0,1,2.1543-1.2151,13.3528,13.3528,0,0,1,2.6592-.6443c.451-.126.8564-.2081.8564-.2081s.39.7029.12.7874-.694-.0805-1.48-.0283a7.3568,7.3568,0,0,0-2.3474.7627,2.5876,2.5876,0,0,0-1.2081,1.0087Z" transform="translate(0 0.1011)"/><path class="cls-2" d="M61.02,33.9883a.6381.6381,0,1,1,.8679-.227A.634.634,0,0,1,61.02,33.9883Z" transform="translate(0 0.1011)"/><path class="cls-2" d="M63.5159,37.9987a8.0947,8.0947,0,0,0-1.2155-2.6,13.3533,13.3533,0,0,0-1.884-1.9842c-.3107-.3505-.6066-.6394-.6066-.6394s-.7092.3787-.5278.5966.6266.3088,1.2586.7793a7.3536,7.3536,0,0,1,1.5583,1.9142,3.5152,3.5152,0,0,1,.5325,1.7193Z" transform="translate(0 0.1011)"/><path class="cls-2" d="M63.2382,37.07a.9475.9475,0,1,1,1.3111-.3241A.955.955,0,0,1,63.2382,37.07Zm.4712-.4033a.413.413,0,1,0-.4459-.4117A.43.43,0,0,0,63.7094,36.6665Z" transform="translate(0 0.1011)"/><path class="cls-2" d="M58.9612,32.0286a1.0468,1.0468,0,1,1,1.0467,1.0467A1.0468,1.0468,0,0,1,58.9612,32.0286Zm1.0467.5242a.524.524,0,1,0-.5279-.5242A.5261.5261,0,0,0,60.0079,32.5528Z" transform="translate(0 0.1011)"/><path class="cls-2" d="M62.1885,35.2536a.7746.7746,0,1,1,1.0789-.26A.7849.7849,0,0,1,62.1885,35.2536Zm.395-.3611a.3088.3088,0,1,0-.3243-.3085A.3168.3168,0,0,0,62.5835,34.8925Z" transform="translate(0 0.1011)"/><path class="cls-2" d="M57.5105,39.8824c.2191,0,.3438-.2362.3438-.4289a.4.4,0,0,0-.7928,0A.4965.4965,0,0,0,57.5105,39.8824Z" transform="translate(0 0.1011)"/><path class="cls-1" d="M0,133.1884c.5171,0,1.0344.0575,1.5658.0575.5173,0,1.0488-.0575,1.566-.0575v.316c-.6465.0863-.8045.5173-.8045,1.4367,0,1.3649-.0145,2.73-.0145,4.0944,0,1.9252.8909,3.29,3.0316,3.29a2.4275,2.4275,0,0,0,2.6432-2.2987v-1.6952c0-1.6953-.1292-3.3906-.1292-4.1088a.7983.7983,0,0,0-.7326-.7185v-.316c.5172,0,1.0342.0575,1.5516.0575s1.0487-.0575,1.5659-.0575v.316c-.474.0145-.6753.5747-.6753,1.0631,0,.5461-.0431,2.04-.0431,3.9366v3.1318c0,.8046.158,1.2211.79,1.2643v.3161c-.4022,0-.8189-.0575-1.2211-.0575s-.8046.0575-1.2068.0575c.0288-.4885.072-.9339.1-1.3649a4.58,4.58,0,0,1-3.4049,1.5373c-2.1262,0-3.807-1.2212-3.807-3.3761v-2.3992c0-1.1207-.0718-2.112-.0718-3.0027,0-.56-.1-1.02-.7039-1.1063Z" transform="translate(0 0.1011)"/><path class="cls-1" d="M13.2607,142.9c.56-.1436.8907-.5746.8907-1.3792l.0432-8.5051h.6034l7.0252,7.7293v-4.9421c0-1.7814-.3878-2.198-1.0776-2.2987v-.316c.4742,0,.9484.0575,1.4224.0575s.9627-.0575,1.4368-.0575v.316c-.6322.1151-.9483.6178-.9483,1.7816l-.0432,8.1027h-.4885l-7.14-7.7724.0577,5.4738c.0143,1.12.359,1.6377,1.0487,1.81v.3161c-.4742,0-.9483-.0575-1.4224-.0575s-.9338.0575-1.408.0575Z" transform="translate(0 0.1011)"/><path class="cls-1" d="M29.7531,133.5044c-.5315.0863-.589.46-.589.9627,0,1.3935-.0575,3.0888-.0575,4.6116v2.7872c0,.474.158,1.02.7041,1.0343v.3161c-.4885,0-.9914-.0575-1.48-.0575-.5027,0-.9912.0575-1.48.0575V142.9c.46-.0144.7183-.4166.7183-1.0343V139.797c0-1.7239-.1293-4.2525-.1293-5.1575,0-.5891-.0574-1.0631-.6465-1.1351v-.316c.4885,0,.977.0575,1.48.0575.4885,0,.9912-.0575,1.48-.0575Z" transform="translate(0 0.1011)"/><path class="cls-1" d="M36.8925,143.3887l-3.9651-8.72a2.1035,2.1035,0,0,0-1.0344-1.1639v-.316c.5459,0,1.0919.0575,1.6377.0575.5317,0,1.0775-.0575,1.6236-.0575v.316c-.2729.0575-.5317.1869-.5317.5173a2.57,2.57,0,0,0,.2588.8907l2.629,6.2781,2.2412-5.8615a2.651,2.651,0,0,0,.201-.9481c0-.56-.1866-.79-.7471-.8765v-.316c.4886,0,.977.0575,1.4655.0575s.9768-.0575,1.4653-.0575v.316c-.589.0863-.9194.5747-1.2067,1.2931l-3.4049,8.5912Z" transform="translate(0 0.1011)"/><path class="cls-1" d="M44.0765,142.8427a.8319.8319,0,0,0,.8333-.8764v-2.4279c0-1.9538-.1151-4.0082-.1151-5.2868,0-.3592-.2729-.6035-.7182-.69v-.316h5.6748a4.0564,4.0564,0,0,0,1.1349-.23c0,.3736-.0575.7185-.0575,1.0776s.0575.704.0575,1.0631H50.34c-.2441-.69-.5889-1.2212-1.3792-1.2212H46.4468v3.8216h2.1694c.8333,0,1.1063-.0718,1.4511-.7757h.46c0,.4166-.0576.8331-.0576,1.25,0,.4311.0576.8476.0576,1.2643h-.4885c-.3161-.9913-.5891-1.0488-1.4224-1.0488H46.4468v4.0227h2.4425a2.0485,2.0485,0,0,0,2.0975-1.0776l.4453.23-.5028,1.7672a3.6613,3.6613,0,0,0-1.35-.23H44.0765Z" transform="translate(0 0.1011)"/><path class="cls-1" d="M54.5222,142.9c.4884-.1149.7182-.3448.7182-.8333v-3.6923c0-1.2353-.0718-2.4708-.0718-3.692,0-.6752-.0718-1.0345-.8044-1.1782v-.316c.46,0,.9336.0575,1.3935.0575.4309,0,.8619-.0575,1.94-.0575,2.586,0,3.85,1.293,3.85,2.8446a3.0629,3.0629,0,0,1-2.6,2.7009l2.902,3.3618a2.472,2.472,0,0,0,1.0919.8045v.3161c-.4742,0-.9627-.0575-1.4367-.0575s-.9483.0575-1.4224.0575V142.9a.1726.1726,0,0,0,.1581-.1724.6809.6809,0,0,0-.2154-.46L57.64,139.4809c-.2155-.2441-.5171-.6178-.862-.6178v2.8447c0,.6034.0717,1.0343.8046,1.1924v.3161c-.5173,0-1.02-.0575-1.5373-.0575s-1.0058.0575-1.5228.0575Zm2.2555-4.4824c.2154.0143.3878.0432.56.0432a2.308,2.308,0,0,0,2.4566-2.2556c0-1.3218-.6032-2.5-2.1693-2.5-.3734,0-.7758.0432-.7758.4022Z" transform="translate(0 0.1011)"/><path class="cls-1" d="M65.0526,141.2625h.5459a2.2736,2.2736,0,0,0,2.3562,1.5228,1.859,1.859,0,0,0,1.8677-1.7959c0-3.0313-4.899-1.1636-4.899-5.0569a3.0616,3.0616,0,0,1,3.3186-2.9166,5.5451,5.5451,0,0,1,2.5573.6609l.1437,1.5373h-.5172a2.2675,2.2675,0,0,0-2.1695-1.5946,1.82,1.82,0,0,0-1.9394,1.8246c0,2.5284,4.899,1.0631,4.899,4.8126a3.159,3.159,0,0,1-3.3618,3.132,6.0465,6.0465,0,0,1-2.8015-.56Z" transform="translate(0 0.1011)"/><path class="cls-1" d="M77.5223,133.5044c-.5315.0863-.589.46-.589.9627,0,1.3935-.0576,3.0888-.0576,4.6116v2.7872c0,.474.1582,1.02.7042,1.0343v.3161c-.4885,0-.9915-.0575-1.48-.0575-.5027,0-.9912.0575-1.48.0575V142.9c.46-.0144.7183-.4166.7183-1.0343V139.797c0-1.7239-.1292-4.2525-.1292-5.1575,0-.5891-.0574-1.0631-.6466-1.1351v-.316c.4885,0,.977.0575,1.48.0575.4882,0,.9912-.0575,1.48-.0575Z" transform="translate(0 0.1011)"/><path class="cls-1" d="M88.9574,135.0417h-.5457c-.1437-.8476-.5748-1.1063-1.3937-1.1063h-1.81c0,1.2355-.0719,2.8159-.0719,4.54v3.06c0,.8907.2729,1.1637.9051,1.3648v.3161c-.56,0-1.1062-.0575-1.6521-.0575s-1.0919.0575-1.6522.0575V142.9c.6608-.2156.862-.5314.862-1.3648V139.28c0-2.0689-.115-4.109-.1437-5.3445H81.5157c-.819,0-1.25.2587-1.3935,1.1063h-.5461v-2.0258a6.5611,6.5611,0,0,0,1.6665.23h6.35a4.1791,4.1791,0,0,0,1.3647-.23Z" transform="translate(0 0.1011)"/><path class="cls-1" d="M90.7955,142.8427a.8318.8318,0,0,0,.8332-.8764v-2.4279c0-1.9538-.1149-4.0082-.1149-5.2868,0-.3592-.2729-.6035-.7183-.69v-.316H96.47a4.0549,4.0549,0,0,0,1.1351-.23c0,.3736-.0576.7185-.0576,1.0776s.0576.704.0576,1.0631h-.5459c-.2443-.69-.5892-1.2212-1.3792-1.2212H93.166v3.8216h2.1693c.8332,0,1.1062-.0718,1.4509-.7757h.46c0,.4166-.0574.8331-.0574,1.25,0,.4311.0574.8476.0574,1.2643h-.4882c-.3162-.9913-.5892-1.0488-1.4224-1.0488H93.166v4.0227h2.4422a2.0483,2.0483,0,0,0,2.0975-1.0776l.4455.23-.5029,1.7672a3.6606,3.6606,0,0,0-1.3505-.23H90.7955Z" transform="translate(0 0.1011)"/><path class="cls-1" d="M109.3437,135.0417h-.546c-.1436-.8476-.5746-1.1063-1.3935-1.1063h-1.81c0,1.2355-.0718,2.8159-.0718,4.54v3.06c0,.8907.273,1.1637.9052,1.3648v.3161c-.5605,0-1.1063-.0575-1.6524-.0575s-1.0916.0575-1.652.0575V142.9c.6609-.2156.8621-.5314.8621-1.3648V139.28c0-2.0689-.1149-4.109-.1437-5.3445h-1.9395c-.8189,0-1.25.2587-1.3937,1.1063h-.5458v-2.0258a6.5593,6.5593,0,0,0,1.6665.23h6.35a4.1791,4.1791,0,0,0,1.3647-.23Z" transform="translate(0 0.1011)"/><rect class="cls-2" x="133.7971" width="1.1478" height="156.1011"/><path class="cls-1" d="M176.5727,66.659c0,3.3627.1306,5.7838,1.1091,6.9272.7829.9415,1.827,1.48,7.046,1.48,7.2415,0,8.2856-.3362,11.2868-7.2634a1.7076,1.7076,0,0,1,2.0221.4035,65.0539,65.0539,0,0,1-2.74,9.7519c-2.74-.1346-8.3507-.2018-15.6572-.2018H172.854c-3.3268,0-6.5891.0672-9.3292.2018-.5218-.2691-.7173-1.6142-.1306-1.95l1.9577-.3363c3.0662-.5381,3.653-.6053,3.653-7.6V43.0529c0-6.9944-.5868-7.1961-3.653-7.667l-1.8271-.2689c-.4567-.3363-.4567-1.6814.1306-1.95,3.2619.1345,6.198.2017,9.1986.2017,2.8707,0,5.8063-.0672,8.6769-.2017a1.3547,1.3547,0,0,1,.1306,1.95l-1.4353.2689c-3.0662.5381-3.6535.6726-3.6535,7.667Z" transform="translate(0 0.1011)"/><path class="cls-1" d="M212,39.0177c0-2.8246-.065-2.9592-1.7614-2.9592h-3.6536c-6.0019,0-7.7634.74-10.1772,6.1874a1.6016,1.6016,0,0,1-2.0877-.4709c1.1091-3.6316,2.0877-7.8013,2.5444-10.1552a.8.8,0,0,1,.7174-.2691.7448.7448,0,0,1,.6524.2691c.3267,1.6813,1.24,1.7485,5.6762,1.7485h26.6173c3.1969,0,4.1754-.2017,4.9589-1.7485a1.8152,1.8152,0,0,1,.7824-.2691,1.0165,1.0165,0,0,1,.8485.3363,48.7029,48.7029,0,0,0-.9785,10.6934,1.5279,1.5279,0,0,1-2.0232.2018c-.8475-5.2459-2.0872-6.5237-9.0681-6.5237h-3.7181c-1.697,0-1.762.1346-1.762,2.9592V68.0713c0,7.1289.5874,7.3307,3.6542,7.667l2.3483.269c.4561.4707.3911,1.6813-.1312,1.95-3.7831-.1346-6.7187-.2018-9.59-.2018s-5.9367.0672-10.1121.2018a1.4832,1.4832,0,0,1-.1306-1.95l2.74-.3363c3.0668-.4036,3.6536-.4708,3.6536-7.6Z" transform="translate(0 0.1011)"/><path class="cls-1" d="M257.3439,56.2347c-3.3279,0-3.5229.1345-3.5229,1.95v9.8863c0,7.1289.5873,7.2634,3.6529,7.667l1.9571.269c.4573.4707.3912,1.6813-.13,1.95-3.393-.1346-6.3286-.2018-9.1993-.2018s-5.8062.0672-8.2856.2018c-.5212-.2691-.5863-1.48-.13-1.95l.9135-.1345c3.0657-.4708,3.653-.6726,3.653-7.8015V43.0529c0-7.1289-.5873-7.3307-3.653-7.7342l-1.4359-.2017a1.4827,1.4827,0,0,1,.1312-1.95c2.8707.1345,5.9363.2017,8.8068.2017s5.8063-.0672,8.3507-.2017a1.4825,1.4825,0,0,1,.1312,1.95l-1.11.2017c-3.0656.5381-3.6529.6053-3.6529,7.7342v8.1378c0,1.883.195,2.0176,3.5229,2.0176h15.2655c3.3279,0,3.5229-.1346,3.5229-2.0176V43.0529c0-7.1289-.5873-7.3307-3.653-7.7342l-1.4359-.2017a1.4827,1.4827,0,0,1,.1312-1.95q4.5011.2017,8.807.2017c2.87,0,5.8061-.0672,8.4156-.2017a1.4825,1.4825,0,0,1,.1311,1.95l-1.1747.2017c-3.0656.5381-3.6529.6053-3.6529,7.7342V68.0713c0,7.1289.5873,7.3307,3.6529,7.7342l1.4359.2018c.4562.4707.3912,1.6813-.1312,1.95-2.8706-.1346-5.8062-.2018-8.6767-.2018q-4.5011,0-8.807.2018c-.5223-.2691-.5873-1.48-.1312-1.95l1.4359-.2018c3.0657-.4035,3.653-.6053,3.653-7.7342V58.185c0-1.8158-.195-1.95-3.5229-1.95Z" transform="translate(0 0.1011)"/><path class="cls-1" d="M166.5563,96.8794h1.9268v8.0941h3.7309v1.5143h-5.6577Z" transform="translate(0 0.1011)"/><path class="cls-1" d="M174.063,96.8794H175.99v5.5474c0,1.6388.5228,2.7125,1.9957,2.7125s1.9963-1.0737,1.9963-2.7125V96.8794h1.9268v6.1393c0,2.5746-1.4588,3.6351-3.9231,3.6351s-3.9231-1.0605-3.9231-3.6351Z" transform="translate(0 0.1011)"/><path class="cls-1" d="M184.6683,96.8794h2.3673l3.662,7.1862h.0275V96.8794H192.57v9.6084h-2.3539l-3.6754-7.186h-.0275v7.186h-1.8444Z" transform="translate(0 0.1011)"/><path class="cls-1" d="M195.3976,96.8794h2.629c2.9457,0,5.5479.9909,5.5479,4.8043s-2.6022,4.8041-5.5479,4.8041h-2.629Zm1.9268,8.0941h1.0737a3.2922,3.2922,0,0,0,0-6.58h-1.0737Z" transform="translate(0 0.1011)"/><path class="cls-1" d="M211.0554,98.6415a4.9853,4.9853,0,0,0-1.955-.4136,1.3375,1.3375,0,0,0-1.5142,1.3361c0,1.6657,4.2123.9629,4.2123,4.1843,0,2.1062-1.6656,2.9055-3.607,2.9055a8.4554,8.4554,0,0,1-2.4637-.3723l.1787-1.734a4.6431,4.6431,0,0,0,2.1752.5918c.73,0,1.7071-.3721,1.7071-1.24,0-1.83-4.2124-1.0738-4.2124-4.2537,0-2.1465,1.6656-2.9312,3.3588-2.9312a7.2472,7.2472,0,0,1,2.2989.3441Z" transform="translate(0 0.1011)"/><path class="cls-1" d="M220.5057,98.3939h-2.753V96.8794h7.4332v1.5145H222.433v8.0939h-1.9273Z" transform="translate(0 0.1011)"/><path class="cls-1" d="M227.1043,96.8794h5.6712v1.5145h-3.7443v2.3673h3.4276v1.5143h-3.4276v2.698h3.7717v1.5143h-5.6986Z" transform="translate(0 0.1011)"/><path class="cls-1" d="M235.4511,96.8794h1.9268v4.1295l3.4691-4.1295h2.368l-3.9512,4.5285,4.1166,5.08H240.861l-3.4556-4.46h-.0275v4.46h-1.9268Z" transform="translate(0 0.1011)"/><path class="cls-1" d="M245.0925,96.8794H247.46l3.6619,7.1862h.0274V96.8794h1.8445v9.6084H250.64l-3.6754-7.186h-.0275v7.186h-1.8444Z" transform="translate(0 0.1011)"/><path class="cls-1" d="M255.6564,96.8794h1.9274v9.6084h-1.9274Z" transform="translate(0 0.1011)"/><path class="cls-1" d="M265.5017,98.6415a4.9847,4.9847,0,0,0-1.9548-.4136,1.3375,1.3375,0,0,0-1.5143,1.3361c0,1.6657,4.2124.9629,4.2124,4.1843,0,2.1062-1.6657,2.9055-3.6071,2.9055a8.4577,8.4577,0,0,1-2.4638-.3723l.1789-1.734a4.642,4.642,0,0,0,2.175.5918c.73,0,1.7072-.3721,1.7072-1.24,0-1.83-4.2124-1.0738-4.2124-4.2537,0-2.1465,1.6657-2.9312,3.3588-2.9312a7.2474,7.2474,0,0,1,2.299.3441Z" transform="translate(0 0.1011)"/><path class="cls-1" d="M268.5489,96.8794h1.9268v4.1295l3.4692-4.1295h2.368l-3.9512,4.5285,4.1164,5.08H273.959l-3.4558-4.46h-.0275v4.46h-1.9268Z" transform="translate(0 0.1011)"/><path class="cls-1" d="M280.6261,96.8794h2.175l3.7718,9.6084h-2.1336l-.8261-2.2025h-3.8956l-.84,2.2025h-1.9963Zm1.06,1.9269h-.0274l-1.39,3.9646h2.8084Z" transform="translate(0 0.1011)"/><path class="cls-1" d="M187.9671,116.1622h1.9268v3.8818h3.8547v-3.8818h1.9274v9.6084h-1.9274v-4.2123h-3.8547v4.2123h-1.9268Z" transform="translate(0 0.1011)"/><path class="cls-1" d="M202.7024,115.9975c3.0147,0,4.7078,2.0367,4.7078,4.942s-1.6657,4.997-4.7078,4.997c-3.0836,0-4.7083-2.0513-4.7083-4.997S199.6463,115.9975,202.7024,115.9975Zm0,8.4246c1.9683,0,2.698-1.7485,2.698-3.4826,0-1.6936-.7846-3.4288-2.698-3.4288s-2.698,1.7352-2.698,3.4288C200.0044,122.6736,200.7336,124.4221,202.7024,124.4221Zm-2.2165-9.2092v-1.5973h1.5967v1.5973Zm4.4325-1.5973v1.5973h-1.5967v-1.5973Z" transform="translate(0 0.1011)"/><path class="cls-1" d="M217.2314,118.0207a6.2893,6.2893,0,0,0-2.4777-.51,3.2718,3.2718,0,0,0-3.4825,3.4838,3.1653,3.1653,0,0,0,3.2622,3.4276,5.1973,5.1973,0,0,0,1.2667-.1378v-2.5052h-2.0378v-1.5144h3.8822V125.44a12.1039,12.1039,0,0,1-3.1111.4966c-3.111,0-5.2726-1.5558-5.2726-4.8053,0-3.29,2.01-5.1337,5.2726-5.1337a9.49,9.49,0,0,1,2.8219.399Z" transform="translate(0 0.1011)"/><path class="cls-1" d="M225.5238,117.9243a4.98,4.98,0,0,0-1.9542-.4136,1.3375,1.3375,0,0,0-1.5143,1.3361c0,1.6657,4.2123.9629,4.2123,4.1843,0,2.1062-1.6657,2.9054-3.6065,2.9054a8.458,8.458,0,0,1-2.4643-.3722l.1788-1.734a4.6427,4.6427,0,0,0,2.1751.5918c.73,0,1.7071-.3721,1.7071-1.24,0-1.83-4.2123-1.0738-4.2123-4.2538,0-2.1464,1.6657-2.9311,3.3588-2.9311a7.2467,7.2467,0,0,1,2.2989.3441Z" transform="translate(0 0.1011)"/><path class="cls-1" d="M228.7089,116.1622h1.9269v4.13l3.4691-4.13h2.3679l-3.9512,4.5284,4.1165,5.08h-2.5192l-3.4557-4.46h-.0274v4.46h-1.9269Z" transform="translate(0 0.1011)"/><path class="cls-1" d="M242.1356,115.9975c3.0147,0,4.7078,2.0367,4.7078,4.942s-1.6657,4.997-4.7078,4.997c-3.0836,0-4.7084-2.0513-4.7084-4.997S239.0794,115.9975,242.1356,115.9975Zm0,8.4246c1.9682,0,2.698-1.7485,2.698-3.4826,0-1.6936-.7847-3.4288-2.698-3.4288s-2.6981,1.7352-2.6981,3.4288C239.4375,122.6736,240.1667,124.4221,242.1356,124.4221Z" transform="translate(0 0.1011)"/><path class="cls-1" d="M249.1625,116.1622h1.9268v8.0941H254.82v1.5143h-5.6577Z" transform="translate(0 0.1011)"/><path class="cls-1" d="M259.2158,116.1622h2.1751l3.7718,9.6084H263.029l-.826-2.2026h-3.8957l-.84,2.2026h-1.9962Zm1.06,1.9268h-.0274l-1.3906,3.9646h2.8084Z" transform="translate(0 0.1011)"/></svg>